<?xml version="1.0" standalone="no"?>
<!DOCTYPE svg PUBLIC "-//W3C//DTD SVG 20010904//EN"
 "http://www.w3.org/TR/2001/REC-SVG-20010904/DTD/svg10.dtd">
<svg version="1.0" xmlns="http://www.w3.org/2000/svg"
 width="391.000000pt" height="391.000000pt" viewBox="0 0 391.000000 391.000000"
 preserveAspectRatio="xMidYMid meet">
<metadata>
Created by potrace 1.14, written by Peter Selinger 2001-2017
</metadata>
<g transform="translate(0.000000,391.000000) scale(0.100000,-0.100000)"
fill="#000000" stroke="none">
<path d="M840 3901 c0 -5 6 -14 14 -20 12 -10 13 -8 9 8 -5 21 -23 30 -23 12z"/>
<path d="M907 3878 c13 -26 18 -29 21 -15 4 19 -14 47 -29 47 -5 0 -2 -15 8
-32z"/>
<path d="M944 3894 c3 -9 6 -27 6 -42 0 -18 3 -23 10 -16 8 8 7 20 0 39 -11
29 -11 29 9 10 18 -15 21 -16 21 -2 0 14 3 14 31 0 17 -8 36 -27 42 -41 l12
-26 6 30 c6 24 7 20 9 -21 1 -27 2 -53 1 -57 -2 -16 18 -7 22 10 3 11 5 7 6
-10 0 -15 6 -30 13 -34 8 -5 9 9 5 54 -4 36 -3 62 3 62 14 0 24 -21 13 -29 -6
-4 -5 -21 2 -44 8 -30 13 -35 23 -25 11 11 12 9 7 -7 -6 -16 -5 -17 4 -5 6 8
11 26 11 39 0 13 3 21 7 17 10 -10 10 -60 -1 -67 -4 -4 -10 -29 -11 -57 -2
-43 0 -49 15 -45 13 3 20 22 28 71 9 55 9 71 -5 99 -8 19 -13 37 -9 40 3 3 6
-2 7 -13 1 -15 3 -14 10 6 9 25 9 25 5 -2 -2 -16 0 -28 4 -28 11 0 30 -48 30
-76 0 -14 -4 -22 -10 -19 -6 3 -10 -5 -10 -18 0 -23 4 -25 40 -23 22 0 40 -2
40 -6 0 -5 -6 -8 -14 -8 -8 0 -16 -10 -18 -22 -2 -13 -9 -22 -16 -20 -6 1 -11
-1 -10 -5 2 -5 -8 -41 -22 -80 -17 -51 -21 -76 -14 -83 8 -8 11 0 12 26 2 53
12 56 12 4 0 -48 11 -50 12 -1 1 17 5 28 10 25 4 -3 8 0 8 7 0 7 6 5 14 -6 12
-16 13 -13 9 31 -3 32 -2 46 5 39 5 -5 12 -43 15 -84 2 -40 1 -67 -3 -60 -6 9
-9 7 -13 -7 -2 -10 -3 -4 -1 14 1 17 0 32 -4 32 -14 0 -28 -36 -30 -75 -1 -28
1 -34 6 -21 8 19 9 19 16 1 4 -11 9 -47 11 -80 l4 -60 -15 34 c-9 19 -14 45
-11 57 2 14 -2 25 -9 28 -8 3 -14 14 -14 25 0 11 -4 23 -10 26 -13 8 -12 -126
1 -141 6 -7 4 -16 -5 -23 -11 -9 -14 -4 -19 26 -3 21 -13 56 -23 78 -9 22 -16
54 -15 70 1 20 -1 26 -7 17 -5 -8 -8 -31 -7 -52 1 -22 -2 -37 -6 -34 -5 3 -6
-2 -3 -10 3 -8 12 -12 20 -9 9 3 14 -2 14 -15 0 -11 3 -34 6 -51 4 -20 3 -31
-5 -31 -6 0 -11 16 -11 37 0 20 -3 33 -6 30 -7 -7 -9 -26 -12 -114 -1 -25 -5
-43 -9 -39 -4 4 -6 38 -5 75 3 51 -1 71 -12 80 -13 11 -16 9 -22 -14 -4 -15
-2 -31 5 -38 13 -13 15 -97 2 -97 -5 0 -11 6 -14 13 -2 6 -2 0 0 -15 3 -15 6
-44 8 -65 3 -35 2 -36 -11 -19 -17 24 -18 14 -4 -68 11 -69 8 -79 -14 -39 -14
25 -15 26 -16 6 0 -12 4 -24 9 -28 6 -3 17 -19 25 -36 12 -24 12 -30 2 -26
-20 8 -8 -45 15 -63 20 -17 37 -70 21 -70 -5 0 -13 7 -16 16 -4 9 -9 14 -13
11 -3 -4 0 -13 7 -22 7 -8 9 -15 6 -15 -4 0 5 -20 19 -45 15 -24 24 -49 20
-54 -3 -6 4 -15 15 -21 14 -7 19 -17 16 -27 -4 -10 2 -21 14 -30 11 -8 20 -21
20 -29 0 -8 5 -14 10 -14 6 0 10 5 10 11 0 5 4 8 9 4 17 -10 22 13 9 36 -11
18 -11 22 0 26 10 4 9 10 -4 24 -16 18 -16 19 -1 13 11 -4 17 -1 17 9 0 9 -8
18 -17 20 -13 3 -11 5 6 6 18 1 21 4 12 14 -8 10 -7 17 1 25 7 7 9 12 4 12 -4
0 0 7 8 16 12 11 13 20 6 34 -6 10 -10 29 -10 41 0 19 2 20 16 8 15 -12 16
-11 9 11 -4 14 -14 29 -21 33 -8 4 -14 13 -14 19 0 6 9 3 19 -6 27 -24 33 -7
25 66 -6 55 -5 61 10 55 15 -6 16 -1 10 42 -6 50 2 65 36 66 8 0 16 9 17 20
l3 20 -9 -20 c-8 -16 -10 -13 -12 20 l-2 40 -7 -35 c-7 -35 -7 -35 -9 -5 -2
39 -27 133 -39 148 -6 7 -13 35 -16 62 -3 28 -3 43 0 35 3 -8 8 -22 11 -30 3
-8 5 -22 4 -31 -2 -20 25 -33 36 -16 5 7 10 -6 14 -33 l6 -45 1 42 c1 23 7 45
12 48 6 3 10 20 10 36 0 17 4 28 9 25 5 -3 8 1 7 9 -2 29 18 18 27 -14 6 -26
11 -31 17 -20 5 8 15 14 22 14 7 0 14 12 16 27 2 14 10 32 19 40 14 11 15 10
10 -7 -10 -32 -18 -81 -11 -67 10 22 21 13 22 -19 0 -17 3 -33 6 -36 3 -3 -1
-22 -9 -42 -7 -20 -16 -52 -19 -71 -5 -34 -5 -35 12 -14 9 11 25 31 35 45 14
19 17 20 11 4 -3 -11 -8 -31 -10 -45 -4 -23 -3 -23 11 5 15 30 15 29 9 -23 -6
-45 -4 -52 9 -46 21 8 28 -22 17 -71 -10 -46 -7 -53 15 -31 9 9 21 16 26 16
15 0 10 -36 -6 -50 -8 -7 -15 -19 -15 -27 0 -8 -9 -26 -20 -40 -11 -15 -18
-29 -14 -32 3 -3 14 5 25 18 28 34 23 11 -6 -29 -14 -19 -25 -47 -25 -62 0
-29 -17 -67 -35 -80 -6 -5 -5 -8 4 -8 7 0 11 -6 8 -13 -3 -8 6 -27 20 -43 15
-16 24 -22 21 -14 -3 8 -2 24 3 35 7 18 8 18 9 -5 1 -24 1 -24 15 -6 14 19 15
19 15 1 0 -10 3 -15 7 -12 3 4 11 -1 18 -10 19 -25 43 -9 56 39 21 78 19 75
35 54 14 -20 14 -20 14 0 0 10 7 28 15 38 8 11 13 27 10 36 -3 10 2 16 14 17
20 2 20 -3 4 -44 -3 -10 -5 -26 -4 -37 2 -11 -2 -16 -8 -12 -7 5 -11 -8 -11
-37 0 -32 5 -47 16 -51 21 -8 21 -8 38 40 10 26 15 32 15 18 1 -12 -4 -36 -11
-54 -7 -21 -8 -35 -2 -37 12 -4 6 -71 -7 -79 -12 -7 -11 -54 1 -54 6 0 10 -18
10 -41 0 -25 4 -38 10 -34 12 8 4 -38 -13 -70 -10 -19 -10 -19 -18 0 -5 13 -8
15 -8 5 0 -8 3 -21 8 -28 6 -11 13 -7 30 14 12 15 19 34 17 41 -3 7 -2 13 2
13 4 0 7 -38 7 -85 0 -47 -3 -85 -7 -85 -5 0 -8 -7 -8 -16 0 -8 -5 -25 -12
-37 -7 -12 -11 -33 -10 -47 l1 -25 -8 25 c-6 17 -8 2 -7 -47 2 -76 10 -99 21
-64 13 41 24 10 19 -52 -3 -34 -7 -68 -10 -76 -2 -7 1 -20 8 -28 10 -12 8 -12
-15 -2 -35 16 -46 4 -20 -19 18 -15 19 -20 8 -35 -11 -16 -13 -16 -19 -1 -3 9
-4 20 0 25 7 12 -7 11 -26 -1 -12 -8 -12 -10 -1 -10 10 0 12 -9 8 -34 -7 -42
-40 -78 -64 -69 -13 5 -15 3 -9 -13 5 -10 9 -25 9 -31 0 -15 9 -17 22 -4 6 6
10 -7 11 -35 1 -44 -10 -60 -19 -26 -4 13 -5 11 -6 -5 -1 -13 -7 -23 -16 -23
-8 0 -15 -7 -15 -15 0 -11 7 -13 29 -9 26 5 32 2 46 -26 11 -22 13 -35 6 -39
-5 -4 -6 -12 -2 -20 6 -9 10 -6 15 13 9 36 24 33 18 -4 -2 -16 -8 -30 -13 -30
-5 0 -9 -5 -9 -10 0 -6 14 -8 33 -5 23 4 28 3 17 -4 -9 -7 -14 -22 -12 -43 2
-25 0 -29 -7 -18 -6 8 -11 23 -11 32 0 9 -9 20 -20 23 -11 3 -20 11 -20 16 0
19 -17 8 -30 -18 -8 -17 -14 -23 -17 -15 -4 10 -9 8 -19 -5 -12 -16 -12 -14
-7 20 6 38 -3 47 -25 25 -9 -9 -12 -5 -12 20 0 18 -5 32 -11 32 -7 0 -9 -12
-5 -36 6 -31 5 -35 -11 -32 -10 2 -19 13 -21 25 -3 23 -42 40 -42 18 0 -7 7
-16 16 -19 19 -7 11 -22 -17 -29 -18 -5 -21 -2 -17 23 3 19 -1 31 -9 35 -8 2
-11 0 -8 -5 8 -12 -15 -13 -34 -1 -10 6 -10 10 -1 16 20 12 -26 38 -47 26 -17
-10 -16 -10 2 -11 11 -1 14 -4 8 -7 -7 -2 -13 -11 -13 -19 0 -8 -7 -14 -15
-14 -12 0 -13 4 -6 19 6 10 8 21 5 24 -7 6 16 47 36 64 13 12 13 14 -2 24 -24
14 -23 36 2 44 11 3 20 13 20 20 0 9 -6 12 -17 8 -13 -5 -15 -2 -10 11 4 10 7
22 7 27 0 5 7 9 15 9 20 0 19 16 -2 30 -17 11 -17 11 0 6 19 -6 24 18 6 29 -6
4 -8 13 -5 21 3 9 -1 14 -12 15 -12 0 -13 2 -3 6 11 4 9 10 -8 22 -12 9 -23
26 -24 38 0 12 -6 19 -13 16 -8 -3 -14 16 -19 59 -6 46 -10 58 -16 43 -4 -11
-8 -14 -8 -7 -1 7 -5 11 -9 8 -11 -7 -41 61 -32 71 9 9 -69 173 -81 173 -5 0
-4 -12 1 -26 11 -29 10 -84 -2 -84 -4 0 -8 -7 -8 -15 0 -8 -4 -15 -10 -15 -5
0 -12 -11 -16 -25 -4 -14 -9 -24 -12 -21 -2 3 -14 -6 -25 -20 -10 -14 -26 -23
-33 -20 -8 3 -14 1 -14 -4 0 -6 -7 -10 -15 -10 -8 0 -15 -5 -15 -11 0 -7 -9
-9 -24 -5 -14 3 -26 1 -28 -5 -2 -6 -35 -11 -79 -11 -76 -1 -169 21 -200 48
-8 8 -21 14 -27 14 -21 0 -92 50 -92 64 0 7 -9 16 -20 19 -11 3 -27 21 -35 41
-9 20 -19 36 -23 36 -4 0 -15 22 -25 49 -23 66 -22 195 2 236 28 47 111 85
185 85 81 0 160 -26 151 -49 -4 -9 -13 -43 -20 -76 -12 -56 -12 -61 7 -77 17
-15 19 -28 16 -90 -2 -47 1 -73 8 -75 12 -4 64 142 64 179 0 20 1 20 19 4 16
-15 19 -15 24 -1 4 8 14 15 22 15 10 0 15 7 13 18 -4 18 -38 22 -69 8 -14 -6
-20 4 -35 51 -23 77 -50 99 -131 106 -34 4 -73 13 -86 21 -13 9 -50 19 -84 24
-50 7 -63 6 -74 -7 -8 -9 -26 -23 -41 -30 -29 -15 -37 -31 -15 -31 9 0 9 -2 0
-8 -7 -4 -16 -23 -19 -42 -5 -24 -4 -31 4 -26 17 10 32 -2 25 -20 -5 -13 -7
-13 -14 -2 -17 28 -42 -5 -46 -62 -2 -30 -5 -63 -6 -72 -1 -10 -6 -18 -12 -18
-5 0 -4 -4 3 -8 7 -5 14 -26 16 -48 8 -71 29 -124 49 -124 4 0 13 -13 18 -29
6 -16 25 -36 45 -47 36 -20 42 -29 22 -37 -7 -3 -3 -6 9 -6 12 -1 28 -7 35
-14 7 -7 21 -16 30 -20 10 -3 15 -12 12 -20 -4 -11 8 -16 45 -21 28 -4 53 -11
56 -16 3 -6 15 -10 26 -10 11 0 30 -7 44 -16 18 -12 28 -13 44 -5 29 16 54 14
48 -3 -6 -15 37 -15 181 0 66 7 78 -2 47 -36 -13 -15 -13 -19 5 -38 11 -11 17
-28 14 -36 -4 -10 -1 -16 7 -17 8 -1 3 -4 -10 -8 -29 -8 -40 -31 -16 -31 14 0
15 -3 5 -15 -10 -12 -10 -15 4 -15 23 0 20 -17 -4 -25 -11 -3 -20 -12 -20 -19
0 -7 -11 -18 -25 -24 -33 -15 -35 -15 -35 4 0 12 -6 15 -21 11 -15 -4 -19 -2
-15 8 7 20 -11 29 -59 28 -22 -1 -32 1 -22 4 18 5 24 23 8 23 -5 0 -23 12 -40
26 -19 15 -38 24 -47 20 -10 -4 -18 1 -21 13 -5 20 -58 51 -87 51 -9 0 -15 5
-14 11 2 7 -13 14 -32 16 -19 2 -42 13 -52 23 -9 11 -26 20 -38 20 -23 0 -98
37 -115 56 -11 13 -127 44 -162 44 -14 0 -20 -6 -19 -17 1 -13 -7 -19 -26 -21
-17 -2 -28 2 -28 8 0 7 7 9 16 6 8 -3 13 -2 10 3 -3 5 -22 9 -41 9 -43 0 -67
-30 -38 -47 15 -9 13 -11 -12 -12 -26 -1 -23 -3 20 -15 42 -12 44 -13 13 -10
-21 3 -40 0 -43 -5 -4 -5 16 -9 45 -9 28 0 49 -4 46 -8 -3 -5 8 -9 24 -9 16 0
28 5 27 11 -1 6 4 11 11 10 6 -1 21 -2 32 -2 11 -1 20 -9 20 -17 0 -17 16 -20
25 -6 8 14 -33 34 -83 41 -23 3 -42 10 -42 15 1 6 9 9 18 8 89 -12 111 -16
139 -29 18 -8 45 -14 60 -13 34 2 132 -46 112 -55 -8 -3 5 -4 28 -2 34 3 40 2
30 -9 -7 -6 -26 -15 -42 -18 -109 -21 -157 -35 -135 -37 51 -6 92 -5 96 2 3 4
12 5 22 2 14 -5 15 -4 2 5 -22 15 -9 20 35 11 22 -4 32 -8 23 -9 -10 0 -18 -6
-18 -11 0 -6 11 -8 26 -4 21 5 25 4 19 -6 -6 -10 -1 -11 21 -6 19 4 24 3 15
-2 -15 -11 2 -27 18 -17 5 3 13 0 17 -6 4 -7 22 -9 48 -5 31 4 36 3 18 -4 -12
-5 -40 -11 -62 -12 -35 -3 -38 -5 -23 -15 15 -12 15 -13 -5 -13 -12 0 -22 -5
-22 -11 0 -6 9 -8 21 -4 15 5 19 4 14 -4 -8 -15 35 -52 54 -46 15 6 41 -12 41
-28 0 -6 -17 -7 -42 -4 -37 5 -40 4 -25 -7 25 -19 21 -26 -17 -26 -21 0 -36 6
-40 15 -3 9 -16 14 -31 13 l-25 -2 31 -28 c32 -29 59 -37 59 -16 0 9 3 9 12 0
7 -7 23 -12 36 -12 13 0 32 -5 43 -11 11 -5 28 -9 37 -6 12 2 6 9 -20 22 -36
17 -50 35 -29 35 5 0 18 3 28 6 15 5 16 4 3 -5 -12 -9 -7 -11 25 -8 28 2 41 8
43 20 2 12 -3 17 -20 18 -13 0 -32 4 -43 9 -14 7 -8 8 20 3 51 -7 69 -21 54
-39 -6 -8 -8 -15 -3 -15 5 -1 -7 -5 -26 -9 l-35 -7 41 -2 c27 -1 44 -6 47 -16
5 -11 0 -13 -25 -8 -24 5 -30 3 -26 -8 2 -8 14 -15 26 -17 30 -5 17 -22 -15
-22 -15 0 -23 -3 -20 -7 4 -3 -5 -15 -20 -25 -17 -11 -22 -18 -13 -19 8 0 -2
-7 -23 -15 -29 -10 -44 -11 -59 -3 -11 6 -22 8 -26 5 -13 -14 14 -21 70 -19
39 2 67 -2 80 -11 20 -14 20 -14 -1 -26 -12 -6 -27 -8 -34 -4 -8 5 -9 4 -2 -4
12 -12 115 -21 108 -9 -6 10 85 -2 109 -14 11 -6 18 -4 22 8 6 14 9 14 26 -5
21 -22 28 -48 10 -37 -5 3 -10 1 -10 -4 0 -16 30 -13 36 3 3 8 -7 28 -22 45
-21 24 -31 28 -44 21 -15 -8 -17 -6 -13 10 4 15 0 20 -13 21 -11 0 -14 3 -7 5
7 3 22 0 35 -7 13 -8 26 -12 31 -11 4 1 7 -2 7 -8 0 -5 11 -20 25 -34 14 -14
25 -32 25 -41 0 -8 7 -15 16 -15 22 0 48 -27 31 -33 -9 -4 -8 -8 3 -16 19 -13
5 -14 -20 -1 -15 8 -17 6 -13 -9 6 -25 34 -36 45 -19 5 8 6 2 2 -14 -3 -16 -2
-28 3 -28 8 0 17 -56 16 -107 -1 -15 8 -25 28 -32 16 -5 29 -17 29 -25 0 -8
13 -24 28 -34 15 -11 28 -29 29 -40 2 -25 35 -60 51 -54 7 2 12 -1 12 -7 0 -6
7 -8 15 -5 10 4 15 0 15 -11 0 -11 5 -15 16 -11 8 3 12 2 9 -4 -4 -6 10 -25
29 -44 20 -18 36 -36 36 -39 0 -5 31 -41 76 -89 35 -36 59 -55 76 -61 11 -4
15 -12 12 -21 -3 -9 2 -23 11 -32 9 -9 14 -23 11 -30 -3 -7 0 -11 7 -8 8 3 13
-10 14 -36 2 -25 -1 -39 -7 -35 -6 3 -7 -1 -4 -9 7 -19 -7 -21 -23 -5 -9 9
-13 6 -17 -12 -11 -53 -4 -63 42 -62 6 1 16 -13 21 -31 l9 -31 1 31 c1 22 6
31 19 31 9 0 20 -5 24 -11 4 -6 8 1 8 17 0 17 -5 27 -15 27 -8 0 -15 9 -15 19
0 10 -6 21 -14 24 -14 6 -13 28 1 67 4 8 5 18 5 23 -1 4 3 7 8 7 6 0 10 9 10
20 0 14 5 18 16 13 13 -5 15 -2 9 16 -3 12 -3 20 2 19 4 -2 31 20 58 48 62 63
107 114 100 114 -3 0 4 9 15 20 11 11 25 20 30 20 6 0 10 5 10 10 0 6 6 10 13
9 38 -5 97 31 97 59 0 7 7 12 16 12 9 0 14 6 12 12 -7 19 91 78 127 78 16 0
41 3 55 7 24 6 24 6 8 -11 -10 -10 -18 -22 -18 -27 0 -5 -9 -9 -19 -9 -11 0
-23 -5 -26 -10 -4 -6 -1 -9 7 -8 7 2 12 -3 10 -10 -1 -7 5 -15 13 -18 8 -4 15
-15 15 -25 0 -15 7 -19 38 -18 30 0 34 2 17 10 -14 6 -3 7 34 3 41 -5 52 -3
46 6 -5 9 0 11 21 6 86 -17 104 -18 104 -6 0 7 -8 9 -20 5 -16 -5 -20 -2 -20
15 0 17 4 20 18 15 44 -19 127 -12 115 9 -3 6 0 6 8 -1 15 -15 5 -29 -26 -35
-19 -5 -19 -5 -1 -13 10 -4 21 -4 25 1 3 6 23 15 43 21 29 9 41 8 55 -3 10 -7
14 -14 8 -14 -17 -2 -48 -9 -74 -16 -25 -6 -25 -7 -6 -15 13 -6 -3 -8 -48 -5
-37 3 -82 3 -99 -1 -29 -6 -30 -7 -13 -20 18 -12 18 -13 -3 -13 -25 0 -28 -10
-10 -28 9 -9 9 -12 0 -12 -6 0 -14 11 -18 25 -6 23 -34 36 -34 16 0 -5 -14
-11 -30 -15 -18 -3 -30 -12 -30 -21 0 -8 -6 -15 -12 -16 -7 0 -2 -5 12 -11 21
-9 22 -12 7 -15 -9 -3 -15 -9 -12 -14 4 -5 -9 -9 -27 -10 -31 0 -32 -1 -11
-11 13 -6 25 -18 28 -27 3 -9 19 -22 36 -28 l32 -12 -23 24 -23 25 24 2 c13 0
33 0 44 0 16 -2 17 0 5 8 -13 8 -13 10 1 10 9 0 19 -3 23 -8 12 -11 74 -8 69
3 -5 14 34 12 70 -3 37 -16 42 -15 27 3 -7 8 -20 15 -29 16 -11 0 -12 2 -3 6
17 7 62 -24 62 -42 0 -8 7 -15 15 -15 17 0 20 16 5 25 -20 12 -9 25 18 21 30
-3 82 -33 82 -46 0 -5 -6 -15 -13 -22 -10 -11 -9 -16 5 -31 18 -17 18 -17 12
8 -7 29 -2 31 26 8 15 -13 17 -20 8 -31 -19 -22 -18 -43 0 -41 31 3 35 -1 21
-18 -12 -15 -12 -16 6 -9 15 5 17 4 8 -5 -6 -6 -9 -18 -6 -25 3 -8 0 -14 -6
-14 -6 0 -11 5 -11 10 0 6 -5 10 -12 10 -6 0 -3 -8 7 -20 10 -11 22 -17 28
-13 5 3 7 1 4 -4 -4 -6 51 -70 122 -142 123 -124 138 -136 188 -134 7 1 10 -3
7 -8 -3 -5 22 -9 55 -9 61 0 71 -6 49 -28 -9 -9 -8 -12 5 -12 9 0 17 7 17 16
0 8 5 12 11 9 6 -4 8 -14 4 -23 -3 -8 3 -23 14 -34 17 -15 37 -18 147 -18 117
0 125 1 113 17 -19 22 -176 153 -184 153 -7 0 -125 91 -151 115 -40 38 -276
186 -289 182 -8 -4 -14 -1 -12 6 1 6 -8 13 -21 15 -12 2 -28 12 -35 23 -6 10
-16 19 -22 19 -6 0 -22 12 -36 28 -30 32 -61 57 -80 65 -10 4 -10 6 -2 6 14 1
214 -99 223 -111 3 -4 12 -3 19 2 17 10 43 2 36 -11 -3 -4 -13 -6 -23 -3 -12
4 -11 2 3 -7 21 -13 311 -202 380 -248 22 -14 46 -31 55 -38 8 -7 48 -36 89
-65 40 -29 82 -59 93 -67 18 -14 19 -11 16 59 l-3 74 -100 68 c-147 101 -244
146 -703 329 -139 55 -185 78 -161 79 46 1 607 -231 704 -292 22 -13 56 -32
75 -41 19 -9 66 -39 105 -67 38 -27 73 -50 77 -50 5 0 8 33 8 73 l0 73 -52 25
c-29 14 -71 35 -93 47 -81 44 -263 130 -365 171 -58 24 -114 48 -125 54 -11 5
-51 20 -90 33 -38 12 -60 23 -48 23 24 1 173 -51 266 -93 124 -56 365 -169
428 -202 37 -19 70 -34 73 -34 8 0 8 3115 -1 3124 -4 3 -8 14 -10 24 -5 36
-34 93 -46 91 -7 -1 -24 -1 -40 0 -25 1 -26 3 -15 21 7 11 20 20 30 20 9 0 20
5 23 10 3 6 19 10 36 10 l29 0 0 76 0 75 -32 -18 c-18 -10 -34 -21 -36 -25 -2
-5 -12 -8 -22 -8 -11 0 -17 -7 -16 -17 1 -16 -8 -18 -66 -18 -36 0 -64 3 -62
7 8 12 -31 17 -119 13 l-88 -3 -65 -64 c-53 -50 -262 -279 -296 -323 -5 -5
-19 -23 -33 -38 -14 -15 -25 -33 -26 -40 0 -7 -14 -23 -31 -36 l-30 -24 15 29
c20 38 236 290 339 395 39 39 47 53 37 60 -11 7 -9 9 7 9 20 0 44 17 44 31 0
4 -9 5 -20 2 -11 -3 -20 0 -20 6 0 6 15 11 33 11 21 0 41 8 52 20 18 20 17 20
-76 20 -62 0 -100 4 -108 13 -11 10 -13 10 -7 0 4 -8 2 -13 -6 -13 -7 0 -38
-34 -68 -76 -30 -42 -60 -82 -65 -88 -6 -6 -34 -47 -63 -91 -28 -44 -63 -96
-77 -115 -114 -156 -57 -55 88 158 31 45 57 88 57 94 0 7 -7 3 -16 -8 -11 -13
-10 -10 2 14 10 17 25 32 34 32 8 0 24 15 36 33 42 65 54 87 54 97 0 7 -103
10 -311 10 -204 0 -308 -3 -304 -10 3 -5 1 -10 -4 -10 -6 0 -11 5 -11 11 0 6
-14 9 -32 7 -27 -2 -33 -7 -31 -25 2 -13 -2 -23 -7 -23 -6 0 -10 11 -10 25 0
31 -20 33 -21 3 l0 -23 -11 22 c-10 21 -12 22 -25 5 -12 -16 -13 -16 -7 1 5
15 -1 17 -44 17 -31 0 -52 -5 -55 -12 -4 -10 -6 -10 -6 0 -1 6 -11 12 -24 12
-13 0 -29 -6 -36 -12 -11 -10 -13 -10 -7 0 10 18 -764 18 -783 0 -11 -10 -13
-10 -7 0 5 8 -3 12 -27 12 -29 0 -37 -5 -47 -30 -9 -22 -10 -34 -1 -44 8 -10
7 -21 -5 -45 -8 -17 -19 -31 -23 -31 -18 0 -51 -39 -52 -61 0 -13 -4 -33 -8
-44 -7 -17 -9 -16 -14 10 -7 37 17 91 50 112 14 9 22 22 19 30 -3 8 -1 11 4 8
6 -4 9 7 8 27 -1 18 2 41 6 51 6 13 3 17 -12 17 -21 0 -41 -40 -43 -89 -1 -25
-2 -25 -9 4 -7 28 -8 28 -9 -12 0 -23 -5 -44 -9 -47 -10 -6 -7 82 3 114 6 18
9 20 16 9 7 -11 9 -10 9 3 0 16 -15 18 -160 17 -94 0 -158 -4 -154 -10 3 -5 0
-9 -5 -9 -6 0 -11 5 -11 10 0 6 -25 10 -56 10 -47 0 -55 -3 -50 -16z m1740
-92 c-1 -1 -9 0 -18 4 -18 7 -22 34 -6 34 6 0 10 6 9 13 -1 6 0 19 1 27 2 8 6
-5 9 -30 4 -25 6 -46 5 -48z m-367 46 c-3 -8 -6 -5 -6 6 -1 11 2 17 5 13 3 -3
4 -12 1 -19z m440 -20 c-3 -7 -5 -2 -5 12 0 14 2 19 5 13 2 -7 2 -19 0 -25z
m-117 -3 c0 -25 -16 -24 -18 1 -1 15 2 22 8 19 6 -3 10 -12 10 -20z m78 -31
c0 -37 -4 -52 -11 -45 -8 8 -2 101 8 101 2 0 3 -25 3 -56z m157 -6 c3 -46 -6
-101 -15 -91 -8 9 -1 137 8 128 3 -2 6 -20 7 -37z m-1400 -15 c-5 -15 -8 -31
-7 -35 1 -5 -2 -8 -8 -8 -13 0 -13 23 2 55 14 32 23 25 13 -12z m716 -10 c-2
-27 0 -33 11 -27 9 5 8 2 -2 -11 -14 -17 -15 -17 -18 8 -2 15 -8 25 -13 22
-14 -9 -11 24 4 39 17 19 22 11 18 -31z m66 25 c-3 -8 -6 -5 -6 6 -1 11 2 17
5 13 3 -3 4 -12 1 -19z m503 -17 c0 -22 -3 -42 -7 -44 -5 -3 -8 15 -8 39 0 24
3 44 8 44 4 0 7 -18 7 -39z m-1585 19 c3 -5 1 -10 -4 -10 -6 0 -11 5 -11 10 0
6 2 10 4 10 3 0 8 -4 11 -10z m1746 -37 c-10 -17 -10 -16 -11 3 0 23 13 41 18
25 2 -6 -1 -18 -7 -28z m705 20 c39 -17 47 -20 72 -22 7 0 10 -5 7 -11 -3 -5
2 -10 12 -11 15 0 15 -2 -3 -9 -20 -8 -84 3 -179 30 -27 7 -24 8 25 10 30 2
45 5 32 7 -12 2 -20 9 -17 14 8 12 6 12 51 -8z m-1056 -38 c0 -5 -5 -3 -10 5
-5 8 -10 20 -10 25 0 6 5 3 10 -5 5 -8 10 -19 10 -25z m220 -5 l-8 -35 -1 31
c-1 17 2 34 6 37 11 12 12 3 3 -33z m-1465 2 c-2 -9 -4 -20 -4 -24 -1 -5 -5
-8 -11 -8 -11 0 -14 43 -4 53 11 11 22 -2 19 -21z m425 13 c0 -8 -4 -15 -9
-15 -5 0 -11 7 -15 15 -3 9 0 15 9 15 8 0 15 -7 15 -15z m51 -48 c-13 -13 -15
1 -4 30 7 17 8 17 11 -1 2 -10 -1 -23 -7 -29z m-310 10 c-10 -9 -11 -8 -5 6 3
10 9 15 12 12 3 -3 0 -11 -7 -18z m216 1 c-3 -8 -6 -5 -6 6 -1 11 2 17 5 13 3
-3 4 -12 1 -19z m130 0 c-3 -8 -6 -5 -6 6 -1 11 2 17 5 13 3 -3 4 -12 1 -19z
m830 -15 c-3 -10 -5 -4 -5 12 0 17 2 24 5 18 2 -7 2 -21 0 -30z m1098 17 c3
-5 1 -10 -4 -10 -6 0 -11 5 -11 10 0 6 2 10 4 10 3 0 8 -4 11 -10z m-2005 -19
c0 -6 -4 -13 -10 -16 -5 -3 -10 1 -10 9 0 9 5 16 10 16 6 0 10 -4 10 -9z m827
-13 c-3 -8 -6 -5 -6 6 -1 11 2 17 5 13 3 -3 4 -12 1 -19z m833 14 c0 -4 -5
-13 -12 -20 -9 -9 -9 -12 3 -12 12 0 12 -2 -1 -10 -20 -13 -4 -13 21 0 13 8
19 7 19 0 0 -14 49 -5 108 20 42 19 60 10 22 -10 -21 -11 -28 -40 -8 -40 6 0
1 -9 -12 -20 -14 -12 -31 -18 -42 -14 -11 3 -25 0 -33 -6 -8 -6 -24 -9 -37 -5
-16 4 -19 4 -9 -3 11 -8 10 -11 -7 -16 -11 -4 -26 -5 -33 -4 -9 2 -13 -4 -11
-14 2 -10 -2 -18 -8 -18 -5 0 -10 8 -10 18 0 15 -2 15 -11 2 -8 -12 -10 -9 -6
14 l5 28 -25 -26 c-13 -14 -28 -26 -33 -26 -17 0 -29 34 -18 54 13 25 60 65
75 66 7 0 20 11 30 25 18 24 33 32 33 17z m-1740 -18 c0 -8 -4 -12 -10 -9 -5
3 -10 10 -10 16 0 5 5 9 10 9 6 0 10 -7 10 -16z m1613 1 c-3 -9 -8 -14 -10
-11 -3 3 -2 9 2 15 9 16 15 13 8 -4z m-1801 -17 c-7 -7 -12 -8 -12 -2 0 14 12
26 19 19 2 -3 -1 -11 -7 -17z m1221 2 c3 -11 1 -18 -4 -14 -5 3 -9 12 -9 20 0
20 7 17 13 -6z m312 -10 c-4 -12 -9 -19 -12 -17 -3 3 -2 15 2 27 4 12 9 19 12
17 3 -3 2 -15 -2 -27z m-165 -7 c0 -29 -12 -24 -17 7 -2 11 2 20 7 20 6 0 10
-12 10 -27z m826 -15 c-9 -13 -29 -34 -46 -46 -16 -13 -30 -27 -30 -33 0 -14
52 -2 63 14 5 7 6 2 2 -10 -4 -14 -2 -23 5 -23 6 0 10 -6 7 -12 -2 -7 -11 -12
-21 -10 -9 2 -16 -1 -16 -6 0 -5 -13 -15 -29 -22 -16 -6 -37 -20 -47 -31 -22
-25 -38 -24 -31 1 6 24 7 24 -29 6 -41 -21 -109 -32 -100 -17 4 6 11 9 16 6 4
-3 10 2 13 10 4 10 1 12 -11 9 -12 -4 -10 1 7 15 14 13 31 19 45 15 17 -4 40
14 111 83 84 82 127 106 91 51z m-2243 0 c-8 -67 -14 -83 -24 -67 -7 11 -9 9
-9 -9 0 -13 -4 -21 -9 -18 -5 4 -16 -13 -24 -36 -13 -36 -16 -39 -18 -18 -6
75 -3 120 9 125 7 3 12 -5 12 -20 0 -38 13 -30 38 25 12 28 24 50 25 50 2 0 2
-15 0 -32z m259 10 c-7 -7 -12 -8 -12 -2 0 14 12 26 19 19 2 -3 -1 -11 -7 -17z
m1088 -1 c0 -7 -4 -6 -10 3 -8 12 -10 8 -11 -15 -1 -18 -3 -23 -6 -12 -6 24 4
50 17 42 5 -3 10 -12 10 -18z m405 -3 c-9 -9 -18 -14 -21 -11 -9 9 6 27 22 27
13 0 13 -2 -1 -16z m-1505 -20 c7 -7 10 -23 7 -36 -4 -20 -4 -19 -6 5 l-1 28
-31 -21 c-37 -27 -42 -23 -27 17 12 32 36 35 58 7z m1443 -9 c-7 -21 -13 -19
-13 6 0 11 4 18 10 14 5 -3 7 -12 3 -20z m-448 -10 c0 -14 -3 -25 -7 -25 -5 0
-8 11 -8 25 0 14 3 25 8 25 4 0 7 -11 7 -25z m332 3 c-3 -8 -6 -5 -6 6 -1 11
2 17 5 13 3 -3 4 -12 1 -19z m24 -1 c-10 -9 -11 -8 -5 6 3 10 9 15 12 12 3 -3
0 -11 -7 -18z m-714 -49 c-3 -7 -5 -2 -5 12 0 14 2 19 5 13 2 -7 2 -19 0 -25z
m868 22 c-26 -11 -48 -12 -41 -2 2 4 17 8 33 9 24 1 25 0 8 -7z m545 0 c0 -5
-8 -10 -17 -10 -15 0 -16 2 -3 10 19 12 20 12 20 0z m-2268 -9 c7 11 11 11 15
1 2 -6 8 -10 13 -7 15 9 28 -19 19 -43 -10 -26 -29 -21 -29 9 0 10 -4 19 -10
19 -5 0 -10 -5 -10 -11 0 -5 -4 -7 -10 -4 -6 3 -10 -4 -10 -16 0 -12 -3 -20
-6 -16 -4 3 -3 23 1 44 4 21 10 32 12 24 5 -11 7 -11 15 0z m338 -6 c0 -8 -2
-15 -4 -15 -2 0 -6 7 -10 15 -3 8 -1 15 4 15 6 0 10 -7 10 -15z m617 -27 c-3
-7 -5 -2 -5 12 0 14 2 19 5 13 2 -7 2 -19 0 -25z m-59 -15 c-2 -15 2 -28 10
-30 7 -3 10 1 7 9 -6 16 11 45 21 35 4 -3 1 -13 -6 -22 -7 -8 -9 -15 -4 -15 5
0 10 -14 11 -30 3 -35 -3 -37 -28 -9 -22 26 -39 17 -39 -22 0 -16 -5 -29 -11
-29 -13 0 -1 63 12 68 5 2 9 12 9 22 0 21 10 50 17 50 2 0 3 -12 1 -27z m1097
15 c-11 -7 -26 -18 -33 -25 -7 -7 -18 -13 -25 -13 -6 0 4 11 23 25 19 14 39
25 44 25 6 0 2 -6 -9 -12z m45 -13 c-7 -8 -18 -15 -24 -15 -6 0 -2 7 8 15 25
19 32 19 16 0z m-1793 -35 c0 -40 -10 -53 -21 -25 -4 12 11 65 19 65 1 0 2
-18 2 -40z m25 18 c-7 -7 -12 -8 -12 -2 0 14 12 26 19 19 2 -3 -1 -11 -7 -17z
m35 -10 c-3 -7 -5 -2 -5 12 0 14 2 19 5 13 2 -7 2 -19 0 -25z m-139 -18 c-5
-36 9 -40 18 -5 7 30 20 32 27 5 3 -11 2 -18 -3 -15 -4 2 -18 -15 -31 -40 -22
-41 -24 -43 -32 -23 -5 13 -3 24 4 28 7 5 8 10 1 14 -6 3 -16 -7 -24 -24 -7
-16 -17 -30 -21 -30 -5 0 1 15 12 33 12 17 27 44 33 60 16 35 21 34 16 -3z
m226 0 c-7 -33 9 -41 25 -12 6 9 11 12 11 5 0 -26 -14 -44 -45 -57 -18 -8 -35
-23 -38 -35 -6 -26 -2 -26 25 -1 12 11 28 20 35 20 7 0 14 -9 14 -20 1 -11 3
-24 4 -30 1 -5 3 -13 4 -16 0 -3 6 -2 11 1 7 5 8 11 1 18 -6 8 -4 19 5 32 13
18 14 15 9 -30 -4 -28 -10 -51 -15 -53 -5 -2 -7 -9 -4 -16 3 -7 -2 -19 -11
-26 -8 -7 -15 -17 -15 -22 0 -5 11 3 25 18 14 15 28 24 31 21 10 -9 -32 -82
-45 -79 -6 1 -11 -7 -11 -18 0 -11 -18 -39 -40 -62 -43 -47 -57 -86 -18 -52
35 30 67 65 71 77 2 7 7 9 11 6 3 -3 -2 -17 -13 -31 -12 -14 -16 -29 -12 -37
6 -9 10 -7 14 8 3 12 12 21 21 21 19 0 21 -11 5 -27 -7 -7 -8 -24 -4 -45 7
-27 9 -30 15 -14 5 16 7 17 12 4 4 -9 1 -27 -7 -40 -7 -14 -18 -38 -24 -54
l-11 -29 5 30 c4 18 2 25 -3 17 -15 -22 -45 -3 -38 24 3 13 9 35 12 48 4 16 1
25 -10 29 -13 5 -15 2 -11 -16 4 -13 -1 -43 -9 -68 -9 -24 -16 -53 -16 -64 0
-15 -3 -16 -9 -7 -5 9 -14 -2 -29 -37 -12 -27 -22 -55 -22 -61 0 -7 -7 -9 -15
-6 -9 3 -18 -1 -21 -9 -20 -51 -30 37 -13 109 6 26 15 43 19 37 4 -7 11 -2 18
14 14 31 16 79 3 71 -5 -4 -7 3 -4 14 3 11 9 20 14 20 5 0 9 9 9 20 0 11 6 20
13 21 10 0 10 2 0 6 -7 2 -13 9 -13 14 0 4 7 6 15 3 9 -4 15 -1 15 7 0 8 3 25
5 39 5 21 4 22 -4 5 -9 -19 -9 -19 -17 -1 -4 10 -3 26 3 35 14 22 6 40 -16 34
-10 -3 -22 0 -25 6 -4 6 -3 11 2 11 5 0 12 9 15 19 3 14 1 18 -10 14 -12 -5
-13 4 -7 48 4 30 13 58 21 62 7 5 11 17 8 30 -3 13 3 34 15 52 23 35 26 28 6
-20 -10 -23 -11 -37 -4 -41 6 -4 14 -1 18 6 4 7 13 9 20 5 9 -5 10 -2 6 12 -6
19 8 73 19 73 2 0 2 -13 -1 -30z m610 14 c11 -30 7 -46 -12 -40 -13 5 -17 0
-18 -22 -3 -71 -4 -76 -15 -65 -9 9 -9 20 1 43 10 23 10 34 1 43 -15 15 -14
27 4 27 8 0 15 7 15 15 0 20 16 19 24 -1z m1196 -34 c-9 -5 -31 -22 -50 -39
-40 -35 -46 -37 -54 -15 -4 10 4 20 27 30 17 8 43 21 57 29 13 8 27 12 30 9 2
-3 -2 -9 -10 -14z m-1357 -76 c-6 -17 16 -94 28 -94 5 0 8 -13 7 -29 -1 -16
-6 -27 -11 -24 -5 3 -13 -1 -18 -8 -6 -10 -9 -6 -9 14 0 17 -5 27 -15 27 -8 0
-15 9 -15 20 0 11 5 20 11 20 7 0 10 19 8 53 -1 28 -1 66 1 82 2 28 3 27 10
-10 4 -22 6 -45 3 -51z m197 57 c0 -20 -39 -74 -40 -54 0 6 7 18 15 27 8 8 15
22 15 30 0 9 2 16 5 16 3 0 5 -9 5 -19z m42 -33 c-6 -6 -7 0 -4 19 5 21 7 23
10 9 2 -10 0 -22 -6 -28z m-794 2 c-7 -11 -16 -20 -21 -20 -4 0 -3 9 3 20 6
11 15 20 20 20 6 0 5 -9 -2 -20z m1645 5 c-3 -9 -8 -14 -10 -11 -3 3 -2 9 2
15 9 16 15 13 8 -4z m271 -3 c-11 -10 -19 -23 -16 -30 4 -12 -44 -39 -54 -30
-7 8 66 78 80 78 6 -1 2 -8 -10 -18z m-2167 -24 c-3 -7 -5 -2 -5 12 0 14 2 19
5 13 2 -7 2 -19 0 -25z m153 -8 c-11 -22 -22 -40 -25 -40 -6 0 15 50 28 68 19
24 17 11 -3 -28z m60 31 c0 -5 3 -16 6 -24 3 -10 -3 -18 -18 -22 -13 -4 -26
-13 -30 -19 -5 -7 -8 -7 -8 2 0 8 9 16 20 19 15 4 18 11 14 29 -4 15 -2 24 5
24 6 0 11 -4 11 -9z m656 -7 c-14 -37 -18 -64 -8 -64 6 0 13 8 15 18 4 16 1
-111 -3 -133 -1 -5 2 -21 6 -35 l8 -25 7 30 7 30 1 -33 c1 -20 -5 -35 -13 -38
-8 -3 -12 -12 -10 -19 3 -7 1 -16 -5 -20 -6 -3 -11 1 -11 9 0 9 -4 16 -10 16
-6 0 -10 -27 -10 -61 0 -43 -3 -58 -12 -53 -7 4 -8 3 -4 -4 4 -7 7 -39 7 -72
0 -34 5 -58 10 -55 5 4 9 17 9 31 0 13 5 24 10 24 13 0 4 -59 -18 -113 -15
-39 -22 -42 -26 -12 -1 9 -9 21 -17 26 -8 5 -9 9 -3 9 7 0 9 11 6 25 -2 15 0
25 7 25 6 0 11 12 11 28 0 21 -2 24 -10 12 -8 -12 -10 -12 -11 5 0 16 -3 14
-11 -7 -6 -17 -17 -28 -28 -28 -10 0 -21 -6 -24 -12 -5 -14 2 34 11 66 3 12 1
16 -6 12 -7 -5 -11 8 -11 39 0 38 -3 46 -15 41 -11 -4 -15 2 -15 24 0 16 5 32
10 35 6 3 10 15 10 26 0 11 5 17 10 14 6 -3 10 -20 10 -37 0 -23 4 -29 15 -24
12 4 13 2 3 -14 -9 -14 -9 -25 0 -45 7 -14 12 -35 12 -45 0 -11 4 -20 9 -20
11 0 21 25 21 51 0 13 5 17 17 12 13 -5 15 -2 10 11 -4 10 -7 22 -7 28 0 6 -6
6 -15 -2 -8 -7 -15 -22 -15 -34 -1 -20 -1 -20 -11 -2 -8 13 -8 25 0 43 14 30
14 80 1 88 -5 3 -10 -3 -10 -15 0 -12 -4 -18 -10 -15 -11 7 -2 95 11 110 5 5
9 -6 9 -27 0 -20 5 -40 10 -43 6 -3 10 -24 10 -46 0 -21 5 -39 10 -39 6 0 10
9 10 19 0 11 5 23 10 26 16 10 12 28 -5 21 -8 -3 -15 -1 -15 4 0 6 5 10 11 10
8 0 8 5 -1 15 -7 8 -10 16 -6 16 3 1 10 2 16 3 5 0 15 10 23 20 17 23 5 94
-19 113 -24 18 -2 72 30 73 4 0 5 -7 2 -16z m163 -56 c-1 -24 -3 -35 -6 -25
-2 9 -9 15 -14 12 -5 -3 -7 1 -4 9 3 9 7 23 10 31 8 28 15 15 14 -27z m1171
12 c-41 -34 -49 -37 -46 -12 3 18 40 42 66 42 9 0 1 -13 -20 -30z m-790 10 c0
-5 -5 -10 -11 -10 -5 0 -7 5 -4 10 3 6 8 10 11 10 2 0 4 -4 4 -10z m225 -32
c-4 -14 -12 -25 -19 -25 -8 0 -11 8 -8 19 2 10 8 15 13 12 5 -3 9 3 9 12 0 10
2 15 5 12 4 -3 3 -17 0 -30z m-1742 -11 c-3 -5 -9 -3 -14 4 -4 7 -5 17 -2 22
3 5 9 3 14 -4 4 -7 5 -17 2 -22z m1193 -33 c-8 -27 -15 -43 -15 -36 -1 7 -5
10 -11 7 -13 -8 -13 7 0 40 5 14 14 23 20 20 5 -3 10 2 10 11 0 10 3 15 6 12
3 -3 -1 -28 -10 -54z m1052 6 c-7 -11 -16 -20 -20 -20 -11 0 -10 9 5 25 18 21
29 18 15 -5z m-1006 -22 c-7 -7 -12 -8 -12 -2 0 6 3 14 7 17 3 4 9 5 12 2 2
-3 -1 -11 -7 -17z m-1327 -55 l15 -48 -20 24 c-11 13 -20 37 -20 54 0 40 8 30
25 -30z m1329 5 c-3 -18 -12 -50 -20 -70 -10 -27 -11 -45 -4 -63 14 -36 13
-42 -3 -21 -11 15 -13 10 -14 -38 -1 -31 3 -56 8 -56 14 0 11 -31 -6 -64 -8
-15 -17 -40 -20 -55 -2 -14 -7 -39 -11 -56 -4 -21 -3 -27 4 -20 6 6 12 27 14
47 1 20 8 44 16 55 13 16 13 15 9 -12 -3 -16 -9 -54 -12 -83 -4 -28 -11 -49
-16 -46 -15 9 -22 -26 -10 -49 6 -12 9 -14 7 -5 -3 10 -1 20 4 23 13 8 19 -18
8 -37 -5 -11 -5 -25 2 -37 14 -27 13 -31 -7 -24 -16 6 -16 5 -4 -10 20 -25 7
-21 -15 5 -10 12 -13 18 -6 14 8 -5 12 -1 12 11 -1 15 -4 14 -20 -7 -11 -14
-24 -30 -29 -36 -5 -6 -12 -25 -16 -42 -3 -18 -10 -32 -15 -32 -10 0 -2 70 15
133 8 26 10 47 6 47 -10 0 -36 -29 -45 -50 -3 -8 -3 5 0 30 7 47 12 86 13 108
1 6 5 12 11 12 5 0 7 -14 3 -32 -5 -29 -4 -31 10 -18 19 19 31 86 17 95 -5 3
-10 1 -10 -4 0 -6 -4 -11 -9 -11 -11 0 -11 40 0 55 4 6 10 25 14 43 5 25 3 32
-9 32 -19 0 -22 36 -3 43 9 4 9 8 -1 15 -11 8 -11 10 1 15 8 3 15 16 15 29 0
13 6 37 13 53 l13 30 5 -40 6 -40 33 71 c37 82 40 95 11 63 -16 -19 -19 -20
-15 -6 3 10 6 22 6 27 0 11 29 40 40 40 5 0 7 -15 4 -32z m-66 -34 c-2 -23
-28 -58 -28 -37 0 9 23 63 27 63 2 0 2 -12 1 -26z m-634 -24 c-7 -30 -8 -32
-21 -15 -7 11 -13 24 -13 29 0 6 4 5 9 -2 6 -10 10 -8 14 9 9 35 18 17 11 -21z
m237 -1 l-9 -34 -1 31 c-1 17 2 34 6 37 12 13 14 -1 4 -34z m681 9 c-7 -7 -12
-8 -12 -2 0 6 3 14 7 17 3 4 9 5 12 2 2 -3 -1 -11 -7 -17z m66 -80 c1 -30 -5
-50 -19 -64 -13 -14 -17 -24 -10 -29 6 -3 11 -1 11 4 0 6 5 11 12 11 6 0 4 -8
-6 -19 -11 -12 -13 -21 -7 -25 7 -5 7 -15 1 -32 -6 -14 -10 -26 -10 -27 0 -1
11 -3 25 -3 24 -2 35 11 16 18 -5 2 -3 12 6 23 15 20 15 20 10 -2 -6 -26 -4
-27 26 -12 19 8 20 8 7 -3 -21 -17 -50 -60 -50 -72 0 -5 12 2 28 16 15 14 38
29 52 33 l25 7 -29 -31 c-17 -17 -37 -31 -45 -32 -9 0 -11 -3 -4 -5 16 -7 -16
-62 -39 -70 -16 -5 -23 -23 -19 -46 0 -5 -4 -8 -10 -8 -6 0 -9 -9 -6 -20 3
-11 1 -18 -4 -15 -4 3 -11 -7 -15 -22 -4 -15 -11 -34 -17 -40 -6 -9 -6 -13 1
-13 6 0 17 10 23 23 18 33 41 48 56 35 10 -8 13 -6 13 5 0 9 4 19 10 22 6 3 7
-1 4 -9 -4 -9 -1 -16 6 -16 10 0 10 -3 0 -15 -11 -13 -10 -14 6 -9 10 4 26 12
34 18 11 8 10 4 -3 -16 -10 -16 -13 -28 -7 -28 5 0 10 4 10 9 0 7 51 31 66 31
13 0 0 -20 -16 -25 -11 -3 -20 -11 -20 -16 0 -5 20 2 43 16 24 14 46 23 49 20
3 -3 20 1 39 8 36 15 72 10 77 -10 1 -7 -6 -13 -17 -13 -10 0 -24 -6 -30 -14
-10 -12 -1 -13 61 -10 71 4 72 3 40 -11 -20 -9 -31 -19 -27 -26 5 -7 -1 -10
-16 -8 -13 2 -30 0 -36 -4 -7 -5 -20 -4 -30 1 -14 9 -14 10 6 17 31 9 16 25
-17 16 -15 -4 -31 -17 -37 -29 -5 -12 -16 -20 -23 -17 -7 3 -11 1 -8 -3 6 -10
-107 -69 -149 -78 -16 -4 -36 -11 -42 -17 -9 -6 -13 -6 -13 2 0 7 -5 9 -10 6
-6 -4 -8 -10 -5 -15 3 -5 -7 -13 -22 -16 -15 -4 -43 -22 -61 -41 -19 -18 -39
-33 -46 -33 -7 0 -31 -16 -53 -35 -43 -36 -66 -45 -57 -21 3 8 1 17 -4 20 -5
3 -12 -7 -15 -23 -4 -16 -14 -32 -24 -35 -10 -3 -24 -20 -31 -38 -6 -17 -15
-29 -18 -25 -4 4 -1 13 6 22 8 10 9 15 1 15 -6 0 -13 -11 -17 -25 -4 -16 -13
-25 -25 -25 -12 0 -24 -12 -33 -32 l-14 -33 1 53 c1 28 5 52 9 52 4 0 8 18 8
40 0 60 29 113 43 78 4 -10 8 -9 16 2 9 13 11 13 11 -2 0 -10 2 -18 4 -18 2 0
13 -3 23 -6 14 -4 15 -4 4 4 -14 10 -10 44 9 72 8 13 11 13 19 1 7 -11 12 -8
26 13 13 19 24 25 41 22 13 -3 24 -2 24 2 0 4 11 19 24 33 54 58 80 154 55
200 -7 14 -5 27 6 48 11 22 12 36 5 56 -12 32 -12 38 -1 31 5 -4 7 4 3 16 -5
21 -4 22 13 8 17 -14 18 -13 13 2 -4 10 -1 19 8 22 9 3 14 20 14 46 0 22 5 40
11 40 5 0 7 -6 4 -12 -4 -7 1 -4 9 6 19 23 20 32 6 41 -5 3 -10 1 -10 -5 0 -6
-5 -8 -11 -4 -6 3 -15 1 -19 -6 -4 -7 -13 -11 -20 -8 -8 2 -3 14 14 35 14 17
33 51 41 75 9 23 17 49 20 56 10 27 23 10 23 -30z m-1258 18 c0 -3 -4 -8 -10
-11 -5 -3 -10 -1 -10 4 0 6 5 11 10 11 6 0 10 -2 10 -4z m487 -28 c-3 -8 -6
-5 -6 6 -1 11 2 17 5 13 3 -3 4 -12 1 -19z m33 -15 c0 -39 -15 -61 -23 -34 -6
25 2 61 14 61 5 0 9 -12 9 -27z m860 4 c0 -2 -9 -12 -20 -22 -24 -21 -27 -14
-4 9 15 15 24 20 24 13z m-419 -140 c-10 -9 -11 -8 -5 6 3 10 9 15 12 12 3 -3
0 -11 -7 -18z m-750 -34 c-9 -16 -10 -14 -11 12 0 21 3 26 11 18 8 -8 8 -16 0
-30z m616 15 c-3 -8 -6 -5 -6 6 -1 11 2 17 5 13 3 -3 4 -12 1 -19z m-1147 -21
c0 -5 -4 -5 -10 -2 -5 3 -10 14 -10 23 0 15 2 15 10 2 5 -8 10 -19 10 -23z
m1030 -88 c-9 -15 -9 -23 -1 -28 11 -7 2 -52 -17 -87 -8 -13 -11 -9 -17 22 -4
25 -3 40 4 42 6 2 11 12 11 23 0 11 6 38 13 60 10 36 12 38 15 15 2 -14 -2
-35 -8 -47z m-483 39 c-3 -8 -6 -5 -6 6 -1 11 2 17 5 13 3 -3 4 -12 1 -19z
m503 -45 c-11 -17 -11 -17 -6 0 3 10 6 24 7 30 0 9 2 9 5 0 3 -7 0 -20 -6 -30z
m-245 -1 c11 27 25 11 25 -28 0 -32 2 -35 22 -29 21 7 21 6 15 -63 -4 -42 -3
-73 3 -77 5 -3 7 -12 3 -20 -3 -8 -1 -15 5 -15 6 0 12 6 15 13 8 21 14 4 19
-50 3 -29 1 -53 -3 -53 -5 0 -9 -9 -9 -20 0 -11 -4 -20 -9 -20 -16 0 -21 33
-12 73 5 21 5 39 0 43 -5 3 -10 -10 -10 -28 -1 -24 -5 -16 -13 29 -6 34 -14
65 -18 69 -12 11 -10 56 2 49 6 -4 10 6 10 22 0 22 -2 25 -10 13 -6 -9 -10
-11 -10 -3 0 7 -7 10 -15 7 -12 -5 -15 2 -15 32 -1 39 -1 39 -15 14 l-14 -25
-1 36 c0 41 11 58 21 32 6 -17 7 -17 14 -1z m115 -3 c0 -11 -4 -18 -8 -15 -5
3 -7 -8 -4 -23 2 -16 -1 -32 -7 -35 -6 -4 -11 0 -12 11 -1 10 -2 25 -3 33 -1
13 21 50 31 50 1 0 3 -9 3 -21z m730 17 c0 -13 -43 -75 -55 -80 -27 -10 -24
11 6 47 26 32 49 47 49 33z m-1190 -26 c0 -5 -5 -10 -11 -10 -5 0 -7 5 -4 10
3 6 8 10 11 10 2 0 4 -4 4 -10z m1385 -10 c-3 -5 -12 -10 -18 -10 -7 0 -6 4 3
10 19 12 23 12 15 0z m75 -4 c0 -2 -9 -6 -20 -9 -11 -3 -18 -1 -14 4 5 9 34
13 34 5z m-970 -28 c0 -16 -3 -19 -11 -11 -6 6 -8 16 -5 22 11 17 16 13 16
-11z m799 -28 c-34 -34 -38 -35 -62 -17 -16 11 -16 14 -2 32 16 19 16 19 5 -4
-12 -23 -12 -23 11 -7 13 9 31 16 41 16 10 0 18 5 18 11 0 5 4 7 10 4 5 -3 -4
-19 -21 -35z m-977 -27 c-2 -7 -9 -13 -14 -13 -6 0 -8 7 -5 15 4 8 2 17 -3 20
-6 4 -10 10 -10 16 0 5 8 1 18 -8 10 -10 17 -24 14 -30z m1021 16 c-24 -10
-43 -23 -43 -29 0 -6 -5 -8 -12 -4 -17 11 39 52 71 51 22 0 20 -2 -16 -18z
m102 6 c-51 -19 -64 -19 -39 0 10 8 33 14 49 14 29 0 28 0 -10 -14z m39 -30
c-5 -11 2 -15 27 -16 19 -1 38 -1 42 0 5 1 6 -3 2 -9 -8 -13 -38 -13 -69 2
-20 9 -23 14 -15 25 15 17 20 17 13 -2z m-1015 -52 c-7 -21 -14 -32 -16 -26
-3 7 1 30 8 50 7 21 14 32 16 26 3 -7 -1 -30 -8 -50z m-104 -2 c-3 -6 -9 -9
-13 -7 -4 2 -5 -17 -3 -42 2 -26 6 -40 10 -32 8 20 31 24 31 5 0 -8 -6 -15
-12 -16 -10 0 -10 -2 0 -6 6 -2 12 -11 12 -19 0 -9 -4 -13 -9 -9 -17 10 -21
-12 -7 -39 8 -17 12 -44 8 -71 -3 -35 -1 -46 12 -51 9 -3 16 -15 16 -25 0 -17
-3 -17 -20 -7 -11 7 -22 25 -25 40 -4 15 -11 28 -17 28 -6 0 -7 -7 -4 -16 3
-9 6 -27 6 -40 0 -17 4 -23 12 -18 6 4 8 3 4 -4 -3 -6 -2 -13 4 -17 6 -4 7
-11 4 -17 -4 -5 -14 5 -22 22 -14 29 -17 30 -23 14 -6 -18 -7 -18 -14 -1 -4 9
-3 23 3 30 6 6 13 29 17 50 6 33 9 36 23 25 14 -11 15 -10 8 7 -5 11 -11 31
-14 45 -2 14 -10 31 -16 39 -6 7 -11 46 -11 86 0 40 3 68 7 62 5 -8 8 -5 8 8
0 18 1 18 16 3 9 -9 13 -21 9 -27z m209 24 c-4 -8 -10 -15 -14 -15 -5 0 -11
-8 -13 -17 -4 -15 -5 -14 -6 3 -1 20 16 44 31 44 4 0 5 -7 2 -15z m-137 -27
c-3 -7 -5 -2 -5 12 0 14 2 19 5 13 2 -7 2 -19 0 -25z m150 -35 c-3 -10 -5 -2
-5 17 0 19 2 27 5 18 2 -10 2 -26 0 -35z m394 14 c-13 -13 -26 -3 -16 12 3 6
11 8 17 5 6 -4 6 -10 -1 -17z m-671 -17 c0 -10 -4 -22 -10 -25 -6 -4 -10 7
-10 25 0 18 4 29 10 25 6 -3 10 -15 10 -25z m1330 21 c0 -14 -49 -26 -92 -23
-50 4 -65 18 -25 24 39 5 117 5 117 -1z m-1266 -16 c-4 -8 -8 -15 -10 -15 -2
0 -4 7 -4 15 0 8 4 15 10 15 5 0 7 -7 4 -15z m133 -37 c-3 -7 -5 -2 -5 12 0
14 2 19 5 13 2 -7 2 -19 0 -25z m43 -49 c-10 -24 -10 -24 -5 4 3 15 1 27 -4
27 -5 0 -12 -15 -14 -32 -3 -24 -4 -20 -5 17 l-2 49 20 -20 c17 -17 19 -25 10
-45z m850 45 c0 -2 -9 -4 -20 -4 -11 0 -20 4 -20 9 0 5 9 7 20 4 11 -3 20 -7
20 -9z m237 1 c-2 -5 -13 -10 -25 -9 -99 3 -116 5 -104 13 19 12 133 8 129 -4z
m-1328 -51 c9 -22 10 -41 3 -65 l-10 -34 -3 50 c-1 37 -3 42 -7 20 -4 -29 -5
-29 -17 14 -24 76 3 89 34 15z m285 40 c3 -8 2 -12 -4 -9 -6 3 -10 10 -10 16
0 14 7 11 14 -7z m-497 -36 c-3 -7 -5 -2 -5 12 0 14 2 19 5 13 2 -7 2 -19 0
-25z m30 10 c-3 -8 -6 -5 -6 6 -1 11 2 17 5 13 3 -3 4 -12 1 -19z m360 0 c-3
-8 -6 -5 -6 6 -1 11 2 17 5 13 3 -3 4 -12 1 -19z m1193 13 c0 -5 8 -12 18 -14
9 -3 2 -5 -15 -6 -31 -1 -41 8 -26 22 9 10 23 8 23 -2z m-1440 -10 c0 -6 -4
-12 -9 -15 -5 -3 -12 -22 -16 -42 -3 -20 -9 -33 -12 -30 -8 8 18 96 28 96 5 0
9 -4 9 -9z m590 -1 c0 -5 -5 -10 -11 -10 -5 0 -7 5 -4 10 3 6 8 10 11 10 2 0
4 -4 4 -10z m-194 -58 c-11 -10 -15 4 -8 28 l7 25 3 -23 c2 -13 1 -26 -2 -30z
m139 38 c3 -5 1 -10 -4 -10 -6 0 -11 5 -11 10 0 6 2 10 4 10 3 0 8 -4 11 -10z
m-635 -61 c0 -15 -4 -31 -10 -34 -11 -7 -12 0 -14 58 -1 32 1 35 12 20 6 -9
12 -29 12 -44z m373 39 c8 -28 -4 -47 -14 -22 -11 27 -11 44 0 44 5 0 11 -10
14 -22z m951 -32 c20 -32 39 -128 33 -167 -11 -69 -37 -143 -57 -161 -11 -10
-20 -23 -20 -28 0 -10 -90 -54 -103 -51 -5 1 -6 -7 -2 -18 5 -17 1 -20 -25
-19 -18 1 -36 -5 -41 -13 -8 -12 -11 -11 -20 5 -9 14 -13 15 -19 5 -7 -10 -12
-10 -23 -1 -7 7 -16 9 -20 6 -3 -3 -15 -3 -26 1 -17 5 -19 9 -9 31 11 24 38
34 38 13 0 -8 4 -8 14 0 11 10 16 9 24 -4 7 -14 16 -10 55 31 25 26 44 51 41
56 -3 4 1 8 10 8 8 0 16 6 19 13 3 8 13 4 32 -13 l28 -25 -17 32 c-8 17 -21
33 -28 36 -10 3 -11 9 0 26 6 11 12 33 12 47 0 15 5 44 12 66 8 28 8 42 0 50
-8 8 -7 16 1 30 10 16 9 22 -5 32 -22 16 -23 36 -3 36 8 0 15 -4 15 -10 0 -5
7 -10 16 -10 11 0 14 6 9 20 -6 18 -4 19 19 9 14 -7 32 -22 40 -33z m-1278
-22 c-4 -14 -9 -24 -12 -21 -3 2 -2 17 2 31 3 15 9 25 11 22 3 -3 2 -17 -1
-32z m234 21 c0 -8 -2 -15 -4 -15 -2 0 -6 7 -10 15 -3 8 -1 15 4 15 6 0 10 -7
10 -15z m-166 -70 c-4 -30 -3 -45 5 -45 6 0 12 -8 12 -17 1 -15 2 -15 6 1 3
11 11 26 18 33 12 11 13 6 12 -29 -1 -29 2 -42 10 -41 16 3 27 -37 14 -50 -8
-8 -11 -6 -12 9 0 10 -3 14 -5 7 -6 -14 13 -53 26 -53 5 0 11 12 13 28 3 19 4
15 6 -15 0 -23 4 -50 7 -60 3 -10 -1 -7 -9 7 l-15 25 -5 -30 c-4 -29 -4 -29
-12 -7 -6 18 -10 21 -17 10 -7 -9 -8 -4 -4 14 6 27 -10 78 -25 78 -4 0 -9 10
-11 22 -4 25 -28 37 -28 14 0 -9 -7 -16 -15 -16 -11 0 -15 12 -16 43 0 32 -2
37 -9 22 -7 -16 -9 -17 -9 -3 -1 9 4 20 10 24 7 4 7 10 1 16 -13 13 -4 38 14
38 10 0 12 -8 7 -32 -4 -22 -3 -29 5 -24 6 4 14 22 18 41 9 51 16 43 8 -10z
m183 13 c-3 -8 -6 -5 -6 6 -1 11 2 17 5 13 3 -3 4 -12 1 -19z m1233 -3 c0 -2
-10 -9 -22 -15 -22 -11 -22 -10 -4 4 21 17 26 19 26 11z m41 -40 c16 -9 27
-20 24 -25 -11 -18 12 -55 35 -55 14 0 26 -8 31 -22 7 -20 5 -23 -19 -23 l-27
-1 28 -15 c15 -8 27 -19 27 -25 0 -6 -5 -7 -12 -3 -6 4 -8 3 -5 -2 9 -16 -6
-30 -43 -40 -26 -7 -35 -16 -36 -32 -1 -17 4 -22 25 -22 24 -1 24 -2 -14 -25
-29 -18 -48 -24 -70 -20 -28 5 -29 5 -12 -9 21 -16 15 -22 -36 -31 -20 -4 -40
-11 -43 -16 -3 -5 3 -6 13 -3 10 3 3 -3 -15 -15 -18 -12 -35 -21 -39 -21 -14
0 -93 -44 -93 -52 0 -5 -6 -8 -12 -7 -24 4 -98 -13 -98 -22 0 -5 -17 -9 -37
-9 -21 0 -45 -5 -53 -10 -11 -7 -6 -8 18 -4 19 4 32 2 32 -4 0 -14 -45 -24
-75 -16 -21 5 -24 3 -19 -11 6 -14 16 -16 60 -13 29 3 51 1 49 -3 -9 -13 -92
-20 -120 -9 -23 9 -26 8 -21 -5 3 -9 0 -15 -10 -15 -8 0 -12 -4 -9 -10 3 -5 2
-10 -3 -10 -5 0 -12 -9 -15 -20 -4 -16 -14 -20 -49 -21 -23 -1 -35 -3 -25 -6
29 -8 20 -26 -10 -19 -25 6 -26 5 -10 -7 23 -19 21 -27 -7 -27 -35 0 -56 10
-56 26 0 8 -5 14 -11 14 -6 0 -8 8 -4 19 3 11 1 22 -5 26 -8 5 -8 11 1 21 9
11 9 17 -1 29 -14 17 -16 16 35 21 57 5 134 21 107 23 -13 0 -21 5 -18 10 5 8
58 6 83 -4 8 -3 12 4 10 18 -2 19 4 22 37 25 29 3 36 6 25 13 -9 6 2 8 36 7
29 0 38 -3 23 -5 -16 -2 -28 -8 -28 -13 0 -11 54 -2 95 16 l30 13 -27 -2 c-31
-2 -39 16 -9 21 35 6 181 140 181 166 0 8 10 22 21 30 12 8 23 25 24 38 2 13
10 51 18 85 8 34 13 64 10 67 -3 2 4 2 16 -1 14 -4 23 0 27 13 17 47 30 52 75
29z m-618 -33 c17 -15 15 -27 -6 -27 -7 0 -13 -19 -13 -49 -1 -27 2 -43 6 -36
6 9 9 9 15 0 4 -6 -1 -18 -11 -25 -17 -13 -17 -16 -4 -25 19 -13 33 -13 25 0
-3 6 -1 10 4 10 12 0 15 -12 11 -45 -2 -25 2 -22 -45 -30 -22 -4 -37 -4 -33 0
9 10 -10 35 -26 35 -6 0 -17 -13 -24 -30 -8 -16 -19 -30 -25 -30 -8 0 -7 4 1
12 16 16 15 50 0 67 -11 11 -10 13 4 8 21 -7 14 19 -8 27 -9 3 -14 20 -14 47
0 37 6 47 42 81 44 40 64 42 101 10z m703 -29 c-3 -3 -13 -2 -23 2 -17 7 -17
8 2 15 19 7 34 -5 21 -17z m54 -13 c9 -6 10 -10 3 -10 -6 0 -18 -3 -27 -6 -11
-4 -16 -1 -16 10 0 18 17 21 40 6z m-1637 -64 c-4 -24 4 -36 31 -52 11 -6 22
-17 24 -25 3 -11 1 -11 -8 1 -9 12 -13 12 -17 2 -7 -17 -42 34 -44 63 -1 19
-2 19 -6 1 -3 -11 -12 -27 -21 -35 -14 -14 -15 -13 -9 11 4 15 3 30 -3 33 -5
3 -10 14 -10 23 1 15 3 14 16 -3 14 -20 15 -19 20 2 5 17 9 19 18 10 7 -6 11
-20 9 -31z m47 2 c0 -18 -17 -34 -27 -25 -3 3 -2 20 2 38 5 23 10 28 16 18 5
-8 9 -22 9 -31z m412 -13 c-3 -47 -6 -53 -18 -41 -17 17 -18 50 -4 77 18 33
25 21 22 -36z m-527 6 c3 -5 1 -12 -5 -16 -5 -3 -10 1 -10 9 0 18 6 21 15 7z
m1705 -1 c0 -5 -4 -10 -10 -10 -5 0 -10 5 -10 10 0 6 5 10 10 10 6 0 10 -4 10
-10z m-1443 -22 c-3 -8 -6 -5 -6 6 -1 11 2 17 5 13 3 -3 4 -12 1 -19z m-213
-34 c4 -10 2 -13 -6 -8 -7 5 -9 -1 -4 -19 3 -14 2 -29 -4 -32 -6 -4 -10 5 -10
20 0 15 -4 24 -10 20 -5 -3 -10 -1 -10 4 0 6 7 11 15 11 8 0 15 5 15 10 0 15
7 12 14 -6z m951 6 c3 -5 1 -10 -4 -10 -6 0 -11 5 -11 10 0 6 2 10 4 10 3 0 8
-4 11 -10z m-1596 -44 c-9 -8 -10 -7 -5 7 3 10 7 24 7 30 1 7 3 4 6 -7 3 -10
-1 -23 -8 -30z m593 -28 c-8 -19 -20 -5 -17 20 2 15 5 34 6 42 1 8 5 -1 8 -20
4 -19 5 -38 3 -42z m1683 62 c3 -6 -1 -7 -9 -4 -18 7 -21 14 -7 14 6 0 13 -4
16 -10z m-1519 -74 c-4 -13 -26 39 -26 62 1 9 7 2 16 -17 8 -19 13 -39 10 -45z
m1499 45 c-3 -6 -18 -11 -33 -10 l-27 1 30 13 c32 14 41 13 30 -4z m-1543 -44
c-5 -7 -8 -22 -6 -34 2 -13 -1 -23 -6 -23 -6 0 -10 16 -10 36 0 21 4 33 10 29
6 -3 11 4 11 17 1 18 2 19 6 5 3 -10 0 -23 -5 -30z m-36 -12 c-8 -23 -25 -9
-19 16 4 13 9 17 16 10 5 -5 7 -17 3 -26z m-706 18 c-1 -5 -12 -21 -27 -38
-26 -30 -26 -30 11 33 8 13 16 16 16 5z m590 -15 c0 -19 -2 -20 -10 -8 -13 19
-13 30 0 30 6 0 10 -10 10 -22z m540 8 c0 -3 -4 -8 -10 -11 -5 -3 -10 -1 -10
4 0 6 5 11 10 11 6 0 10 -2 10 -4z m-366 -29 c-2 -7 7 -23 21 -35 14 -12 25
-27 25 -32 0 -6 -10 -2 -22 9 -11 11 -25 18 -30 15 -4 -3 -8 11 -8 31 0 20 4
34 10 30 5 -3 7 -11 4 -18z m322 -3 c-7 -39 -17 -43 -14 -6 1 18 6 32 10 32 5
0 6 -12 4 -26z m484 16 c0 -5 -2 -10 -4 -10 -3 0 -8 5 -11 10 -3 6 -1 10 4 10
6 0 11 -4 11 -10z m690 6 c0 -7 -71 -46 -83 -45 -7 0 -5 3 3 6 8 3 26 14 39
24 22 18 41 24 41 15z m-1492 -111 c-9 -9 -30 14 -23 25 6 9 10 8 17 -4 6 -10
8 -19 6 -21z m77 7 c-8 -8 -25 10 -19 20 4 6 9 5 15 -3 4 -7 6 -15 4 -17z
m-111 -33 c-3 -6 -7 -9 -8 -7 -1 2 -8 12 -16 22 -14 18 -14 19 8 7 12 -7 20
-17 16 -22z m31 -19 c-4 -12 2 -27 14 -39 11 -11 17 -23 12 -25 -5 -3 -16 3
-26 14 -9 10 -23 16 -31 13 -8 -3 -14 0 -14 6 0 6 7 11 15 11 15 0 19 11 16
39 -2 7 3 10 9 6 6 -4 8 -15 5 -25z m-1201 -136 c5 -12 2 -15 -10 -10 -8 3
-20 6 -25 6 -6 0 -7 5 -4 10 10 15 32 12 39 -6z m1016 -29 c-7 -9 -15 -13 -19
-10 -3 3 1 10 9 15 21 14 24 12 10 -5z m1387 -5 c-8 -14 -14 -15 -33 -6 -20
10 -21 12 -6 17 9 4 24 6 33 6 13 -1 14 -5 6 -17z m-1437 -52 c0 -19 -2 -20
-10 -8 -13 19 -13 30 0 30 6 0 10 -10 10 -22z m1163 15 c-7 -2 -19 -2 -25 0
-7 3 -2 5 12 5 14 0 19 -2 13 -5z m277 -8 c7 -8 8 -15 2 -15 -5 0 -15 7 -22
15 -7 8 -8 15 -2 15 5 0 15 -7 22 -15z m70 -10 c-7 -8 -16 -15 -21 -15 -5 0
-9 7 -9 15 0 9 9 15 21 15 18 0 19 -2 9 -15z m-65 -25 c-27 -12 -43 -12 -25 0
8 5 22 9 30 9 10 0 8 -3 -5 -9z m-1420 -9 c3 -5 1 -12 -5 -16 -5 -3 -10 1 -10
9 0 18 6 21 15 7z m22 -23 c-3 -7 -5 -2 -5 12 0 14 2 19 5 13 2 -7 2 -19 0
-25z m33 6 c0 -14 -4 -23 -9 -20 -5 3 -7 15 -4 26 7 28 13 25 13 -6z m-86 -29
c-4 -8 -1 -15 5 -15 6 0 11 8 11 17 0 20 20 4 23 -18 2 -8 6 -20 11 -27 13
-21 -10 -38 -28 -22 -9 7 -14 16 -11 20 3 4 -5 10 -16 13 -17 5 -19 9 -9 26
12 24 22 28 14 6z m184 3 c-2 -6 -10 -14 -16 -16 -7 -2 -10 2 -6 12 7 18 28
22 22 4z m-884 -17 c3 -4 -6 -6 -19 -3 -14 2 -25 6 -25 8 0 8 39 4 44 -5z
m768 -93 c-7 -7 -12 -8 -12 -2 0 6 3 14 7 17 3 4 9 5 12 2 2 -3 -1 -11 -7 -17z
m1048 -38 c0 -5 -4 -10 -10 -10 -5 0 -10 5 -10 10 0 6 5 10 10 10 6 0 10 -4
10 -10z m-1010 -41 c0 -5 -4 -9 -10 -9 -5 0 -10 7 -10 16 0 8 5 12 10 9 6 -3
10 -10 10 -16z m-867 -26 c-7 -2 -21 -2 -30 0 -10 3 -4 5 12 5 17 0 24 -2 18
-5z m754 -25 c-3 -8 -6 -5 -6 6 -1 11 2 17 5 13 3 -3 4 -12 1 -19z m-714 -10
c-6 -11 -81 -10 -88 1 -3 6 16 9 44 8 27 -1 47 -5 44 -9z m691 -4 c3 -8 2 -12
-4 -9 -6 3 -10 10 -10 16 0 14 7 11 14 -7z m1121 -34 c3 -5 -1 -10 -10 -10 -9
0 -13 5 -10 10 3 6 8 10 10 10 2 0 7 -4 10 -10z m41 -25 c-25 -19 -41 -19 -24
0 7 8 20 14 28 14 11 0 10 -3 -4 -14z m-1316 -5 c0 -5 -4 -10 -10 -10 -5 0
-10 5 -10 10 0 6 5 10 10 10 6 0 10 -4 10 -10z m76 -27 c-6 -6 -36 9 -36 18 0
5 9 4 20 -3 10 -7 18 -14 16 -15z m-6 -34 c0 -5 -4 -9 -10 -9 -5 0 -10 7 -10
16 0 8 5 12 10 9 6 -3 10 -10 10 -16z m-55 2 c3 -5 1 -12 -5 -16 -5 -3 -10 -2
-10 4 0 5 -8 12 -17 14 -14 4 -13 5 4 6 12 0 24 -3 28 -8z m85 -22 c0 -30 -1
-31 -34 -25 -23 5 -36 3 -39 -6 -3 -8 -6 -6 -6 5 -1 13 5 18 22 17 39 -4 47 0
47 20 0 11 2 20 5 20 3 0 5 -14 5 -31z m1277 -45 c-3 -3 -12 -4 -19 -1 -8 3
-5 6 6 6 11 1 17 -2 13 -5z m46 -1 c-7 -2 -19 -2 -25 0 -7 3 -2 5 12 5 14 0
19 -2 13 -5z m-1313 -13 c0 -5 -4 -10 -10 -10 -5 0 -10 5 -10 10 0 6 5 10 10
10 6 0 10 -4 10 -10z m-136 -57 c-22 -16 -28 -11 -19 17 6 17 9 19 22 9 13
-11 13 -14 -3 -26z m54 0 c-3 -15 -6 -15 -17 6 -8 14 -9 21 -2 17 6 -4 11 -1
12 6 0 10 2 10 6 1 2 -7 3 -21 1 -30z m132 1 c0 -2 -7 -4 -15 -4 -8 0 -15 4
-15 10 0 5 7 7 15 4 8 -4 15 -8 15 -10z m-213 -56 c-3 -8 -6 -5 -6 6 -1 11 2
17 5 13 3 -3 4 -12 1 -19z m901 -75 c-2 -11 -13 -19 -28 -20 -21 -1 -22 -1 -3
3 14 4 20 10 16 20 -3 8 0 14 7 14 6 0 10 -8 8 -17z m47 -3 c3 -5 1 -10 -4
-10 -6 0 -11 5 -11 10 0 6 2 10 4 10 3 0 8 -4 11 -10z m909 -9 c3 -5 -4 -11
-15 -14 -26 -7 -89 3 -89 14 0 12 97 12 104 0z m113 -7 c-3 -3 -12 -4 -19 -1
-8 3 -5 6 6 6 11 1 17 -2 13 -5z m-254 -11 c-7 -2 -21 -2 -30 0 -10 3 -4 5 12
5 17 0 24 -2 18 -5z m-1714 -60 c14 -10 13 -12 -6 -10 -18 1 -23 7 -22 27 0
15 3 19 6 10 4 -8 13 -20 22 -27z m144 30 c-7 -2 -19 -2 -25 0 -7 3 -2 5 12 5
14 0 19 -2 13 -5z m1737 -3 c0 -5 -2 -10 -4 -10 -3 0 -8 5 -11 10 -3 6 -1 10
4 10 6 0 11 -4 11 -10z m-450 -30 c31 -29 31 -30 9 -30 -12 0 -37 5 -55 12
l-32 11 21 18 c12 10 23 18 23 19 1 0 16 -13 34 -30z m-100 10 c0 -12 -17 -12
-45 0 -17 7 -15 9 13 9 17 1 32 -3 32 -9z m-1230 -15 c0 -12 9 -14 37 -11 21
3 39 10 41 16 2 5 15 10 28 10 17 0 24 -6 24 -19 0 -11 -6 -22 -12 -24 -7 -3
-4 -6 7 -6 16 -1 17 -3 5 -11 -12 -7 -10 -11 10 -19 l25 -10 -25 -2 c-14 -1
-32 -1 -40 0 -8 1 -3 -8 13 -20 34 -26 38 -74 6 -84 -24 -8 -24 -7 -33 23 -5
13 -3 22 3 22 16 0 13 26 -4 40 -8 7 -13 16 -10 20 2 4 -20 18 -51 30 -41 18
-53 28 -49 39 5 13 4 14 -6 4 -7 -7 -22 -13 -33 -13 -20 0 -20 0 0 15 25 19
64 19 64 0z m280 4 c11 -8 12 -12 3 -16 -19 -7 -16 -26 7 -51 l21 -22 -33 1
c-18 0 -27 3 -20 6 17 7 15 23 -3 23 -8 0 -20 10 -26 22 -10 18 -8 24 7 35 21
16 25 16 44 2z m650 -39 c0 -5 -4 -10 -9 -10 -6 0 -13 5 -16 10 -3 6 1 10 9
10 9 0 16 -4 16 -10z m434 -41 c11 -2 21 -10 24 -18 4 -11 -1 -12 -19 -7 -13
4 -30 8 -36 8 -15 1 -15 1 -7 23 4 9 10 12 13 7 3 -5 15 -11 25 -13z m-208
-86 c-6 -6 -36 9 -36 18 0 5 9 4 20 -3 10 -7 18 -14 16 -15z m1 -19 c-3 -3
-12 -4 -19 -1 -8 3 -5 6 6 6 11 1 17 -2 13 -5z m-117 -25 c10 0 8 -3 -5 -8
-23 -9 -55 -3 -55 11 0 6 10 8 23 4 12 -3 29 -6 37 -7z m455 -189 c4 -7 -2 -9
-19 -4 -30 7 -33 0 -11 -23 19 -19 12 -28 -12 -17 -18 8 -28 10 -48 13 -16 2
48 41 67 41 9 0 20 -5 23 -10z m325 -270 c24 -15 -2 -35 -28 -21 -11 6 -30 11
-41 11 -12 0 -21 5 -21 10 0 13 70 13 90 0z m-110 -10 c0 -9 -61 -30 -69 -24
-2 2 -1 10 2 19 7 16 67 22 67 5z m203 -40 c7 0 20 -9 30 -20 10 -12 21 -18
26 -16 12 8 34 -21 26 -34 -3 -5 -11 -10 -16 -10 -6 0 -7 5 -4 10 3 6 -3 10
-15 10 -11 0 -23 7 -26 15 -4 8 -14 15 -23 15 -9 0 -25 7 -35 15 -16 12 -17
17 -6 30 12 15 14 15 22 1 5 -9 15 -16 21 -16z"/>
<path d="M3309 3598 l-33 -43 42 40 c45 42 47 45 33 45 -5 0 -24 -19 -42 -42z"/>
<path d="M3584 3538 c-4 -7 -2 -14 6 -16 9 -3 6 -10 -11 -23 -13 -10 -19 -19
-12 -19 16 0 43 28 43 45 0 19 -17 28 -26 13z"/>
<path d="M2227 3093 c-4 -3 -7 -11 -7 -17 0 -6 5 -5 12 2 6 6 9 14 7 17 -3 3
-9 2 -12 -2z"/>
<path d="M2326 2855 c-3 -8 -1 -15 4 -15 6 0 10 7 10 15 0 8 -2 15 -4 15 -2 0
-6 -7 -10 -15z"/>
<path d="M2570 2974 c-19 -51 -19 -54 -15 -54 8 0 37 71 32 77 -4 3 -11 -7
-17 -23z"/>
<path d="M2573 2895 c-3 -9 -3 -18 -1 -21 3 -3 8 4 11 16 6 23 -1 27 -10 5z"/>
<path d="M2530 2728 c0 -19 2 -20 10 -8 13 19 13 30 0 30 -5 0 -10 -10 -10
-22z"/>
<path d="M2551 2674 c0 -11 3 -14 6 -6 3 7 2 16 -1 19 -3 4 -6 -2 -5 -13z"/>
<path d="M2915 2887 c-4 -10 -5 -21 -1 -24 10 -10 18 4 13 24 -4 17 -4 17 -12
0z"/>
<path d="M2870 2840 c-24 -44 6 -64 48 -32 l23 18 -23 0 c-13 0 -28 -7 -35
-15 -15 -20 -17 -7 -2 21 6 11 8 22 6 25 -3 2 -11 -5 -17 -17z"/>
<path d="M2846 2763 c-3 -10 -9 -24 -12 -30 -3 -7 -2 -13 3 -13 5 0 14 14 20
30 6 17 8 30 3 30 -4 0 -10 -8 -14 -17z"/>
<path d="M2856 2703 c-9 -21 -21 -46 -26 -55 -13 -23 -13 -31 1 -23 8 6 24 35
34 65 1 3 5 13 10 23 4 10 5 20 3 23 -3 2 -13 -12 -22 -33z"/>
<path d="M3070 2601 c-31 -6 -33 -8 -13 -14 14 -5 32 -3 50 7 29 16 21 18 -37
7z"/>
<path d="M2744 2405 c-16 -12 -16 -14 -3 -15 9 0 22 7 29 15 16 19 0 19 -26 0z"/>
<path d="M3180 2219 c0 -11 4 -18 10 -14 5 3 7 12 3 20 -7 21 -13 19 -13 -6z"/>
<path d="M3134 2065 c3 -8 0 -15 -6 -15 -6 0 -9 -2 -6 -5 3 -3 12 -3 21 1 16
6 12 34 -5 34 -6 0 -8 -7 -4 -15z"/>
<path d="M3405 2240 c3 -5 8 -10 11 -10 2 0 4 5 4 10 0 6 -5 10 -11 10 -5 0
-7 -4 -4 -10z"/>
<path d="M3328 1963 c7 -3 16 -2 19 1 4 3 -2 6 -13 5 -11 0 -14 -3 -6 -6z"/>
<path d="M2968 1843 c6 -2 18 -2 25 0 6 3 1 5 -13 5 -14 0 -19 -2 -12 -5z"/>
<path d="M1831 704 c0 -11 3 -14 6 -6 3 7 2 16 -1 19 -3 4 -6 -2 -5 -13z"/>
<path d="M3657 3903 c-8 -13 35 -36 59 -31 10 2 20 11 22 21 3 13 -3 17 -27
17 -18 0 -31 -5 -31 -12 0 -10 -3 -9 -9 1 -5 7 -11 9 -14 4z"/>
<path d="M801 3851 c-1 -27 2 -32 11 -23 8 8 8 17 0 34 -10 22 -11 21 -11 -11z"/>
<path d="M830 3861 c0 -5 5 -13 10 -16 6 -3 10 -2 10 4 0 5 -4 13 -10 16 -5 3
-10 2 -10 -4z"/>
<path d="M980 3840 c0 -5 5 -10 10 -10 6 0 10 5 10 10 0 6 -4 10 -10 10 -5 0
-10 -4 -10 -10z"/>
<path d="M3540 3838 c0 -5 -6 -8 -14 -5 -8 3 -20 -1 -27 -9 -10 -13 2 -14 95
-13 101 1 131 8 104 25 -20 13 -158 14 -158 2z"/>
<path d="M896 3757 c3 -10 9 -15 12 -12 3 3 0 11 -7 18 -10 9 -11 8 -5 -6z"/>
<path d="M961 3749 c-1 -4 5 -21 13 -39 12 -30 14 -31 24 -14 7 11 12 14 13 7
2 -18 4 -24 17 -56 7 -16 12 -38 12 -49 0 -12 3 -18 8 -14 15 15 11 130 -6
149 -16 19 -42 23 -42 7 0 -14 -27 -12 -33 3 -3 6 -6 9 -6 6z"/>
<path d="M932 3703 c3 -18 1 -33 -4 -33 -4 0 -8 -18 -8 -40 0 -23 5 -40 11
-40 7 0 9 11 6 26 -3 18 -1 22 6 15 6 -6 12 -32 13 -58 2 -31 0 -43 -6 -34 -6
11 -9 7 -13 -15 -4 -27 -4 -26 -6 7 0 19 -5 39 -11 45 -5 5 -14 27 -19 49
l-10 40 3 -40 c5 -58 35 -158 51 -173 10 -8 12 -8 5 0 -17 20 -12 37 10 31 18
-5 20 0 20 58 0 84 7 109 28 102 10 -4 14 -3 10 1 -3 4 -14 9 -24 10 -10 2
-23 11 -28 22 -6 10 -17 28 -24 39 -13 18 -14 18 -10 -12z m35 -205 c-3 -8 -6
-5 -6 6 -1 11 2 17 5 13 3 -3 4 -12 1 -19z"/>
<path d="M1134 3722 c-16 -10 -26 -60 -14 -67 5 -3 10 -16 10 -28 -1 -22 -1
-22 -15 -3 -8 11 -15 35 -15 53 0 18 -4 33 -9 33 -14 0 -22 -62 -12 -98 6 -18
7 -40 4 -49 -4 -11 -2 -14 5 -9 9 5 10 1 3 -16 -4 -13 -5 -32 -1 -43 7 -17 8
-16 13 10 4 24 4 22 4 -10 0 -22 4 -48 9 -58 7 -12 10 -3 10 38 0 32 5 60 13
67 11 11 12 5 6 -32 -4 -33 -3 -41 4 -30 9 12 11 11 11 -7 0 -12 -6 -23 -12
-26 -8 -2 -9 -8 -4 -13 5 -5 11 -4 13 4 6 16 23 15 23 -2 0 -8 -7 -16 -15 -20
-19 -7 -20 -26 -2 -26 8 0 19 10 26 23 6 12 18 33 26 47 10 17 11 28 4 37 -15
17 -2 53 17 46 8 -3 14 1 14 8 0 8 3 25 7 39 l6 25 -20 -22 c-11 -13 -25 -23
-32 -23 -7 0 -11 -21 -11 -55 0 -57 -14 -73 -28 -32 -7 18 -8 131 -1 162 5 27
-3 38 -12 17 -5 -13 -13 -21 -19 -17 -6 4 -4 19 5 42 8 19 15 37 15 39 0 6
-14 4 -26 -4z"/>
<path d="M870 3691 c0 -5 7 -11 14 -14 10 -4 13 -1 9 9 -6 15 -23 19 -23 5z"/>
<path d="M785 3611 c8 -24 11 -55 8 -78 l-6 -38 -19 40 c-18 41 -18 37 3 -48
10 -43 13 -46 25 -30 7 10 14 14 14 8 1 -5 5 -1 10 10 8 18 9 17 9 -8 2 -56
21 -15 22 46 1 45 3 55 9 37 4 -14 5 -52 2 -84 -4 -43 -2 -57 6 -52 7 4 12 15
12 24 0 15 2 15 10 2 8 -13 10 -13 10 2 0 9 2 22 3 30 2 7 2 10 0 6 -13 -23
-21 0 -25 66 -4 82 -7 90 -33 80 -13 -5 -16 -14 -11 -38 9 -41 -10 -21 -21 24
-5 20 -16 36 -26 38 -15 3 -15 0 -2 -37z m72 -23 c-3 -8 -6 -5 -6 6 -1 11 2
17 5 13 3 -3 4 -12 1 -19z"/>
<path d="M740 3599 c7 -11 14 -19 16 -16 7 7 -7 37 -17 37 -6 0 -5 -9 1 -21z"/>
<path d="M990 3578 c0 -7 6 -35 14 -63 13 -48 14 -49 21 -22 5 20 10 25 16 16
4 -7 5 -17 3 -21 -3 -4 -1 -8 5 -8 19 0 23 21 7 39 -9 10 -16 22 -16 28 0 6
-6 16 -14 22 -11 9 -13 6 -10 -16 3 -24 2 -24 -6 5 -11 33 -20 42 -20 20z"/>
<path d="M675 3538 c6 -33 55 -90 55 -65 0 9 -6 20 -14 24 -7 4 -21 22 -30 38
l-17 30 6 -27z"/>
<path d="M640 3517 c0 -10 7 -25 15 -33 19 -19 19 -7 0 26 -11 20 -14 21 -15
7z"/>
<path d="M590 3440 c0 -16 4 -30 8 -30 5 0 7 14 4 30 -2 17 -6 30 -8 30 -2 0
-4 -13 -4 -30z"/>
<path d="M979 3448 c-1 -14 -1 -68 0 -170 1 -61 3 -66 21 -61 12 3 20 0 20 -8
0 -8 6 -5 15 7 21 27 19 93 -2 110 -15 12 -15 13 -2 8 10 -3 19 2 23 12 8 21
-2 33 -13 15 -5 -7 -12 -12 -17 -11 -5 1 -14 -20 -21 -47 l-12 -48 0 70 c1
115 0 135 -6 135 -3 0 -5 -6 -6 -12z"/>
<path d="M1061 3444 c0 -11 3 -14 6 -6 3 7 2 16 -1 19 -3 4 -6 -2 -5 -13z"/>
<path d="M1076 3424 c-4 -14 -4 -39 -1 -55 4 -19 3 -29 -5 -29 -7 0 -9 -8 -6
-20 3 -11 9 -30 12 -41 4 -14 2 -19 -5 -15 -8 5 -10 -9 -9 -46 l1 -53 4 45 c4
44 5 45 18 20 14 -24 14 -24 15 18 0 38 2 43 19 37 14 -4 20 0 23 19 3 14 1
31 -3 38 -7 11 -9 11 -9 0 0 -7 -5 -10 -10 -7 -6 3 -7 17 -4 29 3 14 -2 36
-14 55 l-20 32 -6 -27z m34 -111 c0 -18 -17 -16 -24 3 -8 22 4 40 15 23 5 -8
9 -20 9 -26z"/>
<path d="M766 3389 c-5 -25 -6 -57 -3 -70 3 -19 5 -17 6 9 0 21 5 31 12 27 6
-4 8 -13 5 -20 -3 -8 1 -18 7 -23 9 -8 13 -1 14 24 2 19 -1 34 -7 34 -5 0 -13
15 -18 33 l-9 32 -7 -46z"/>
<path d="M827 3423 c-11 -10 -8 -63 3 -63 6 0 10 16 10 35 0 36 -2 40 -13 28z"/>
<path d="M1227 3413 c-2 -4 0 -19 6 -33 l10 -25 5 24 c4 24 -12 50 -21 34z"/>
<path d="M530 3400 c0 -5 5 -10 10 -10 6 0 10 5 10 10 0 6 -4 10 -10 10 -5 0
-10 -4 -10 -10z"/>
<path d="M628 3370 c-4 -48 3 -72 19 -62 8 5 9 20 1 55 -5 26 -11 47 -13 47
-1 0 -5 -18 -7 -40z"/>
<path d="M1040 3395 c0 -8 2 -15 4 -15 2 0 6 7 10 15 3 8 1 15 -4 15 -6 0 -10
-7 -10 -15z"/>
<path d="M611 3384 c0 -11 3 -14 6 -6 3 7 2 16 -1 19 -3 4 -6 -2 -5 -13z"/>
<path d="M0 3386 c0 -2 8 -10 18 -17 15 -13 16 -12 3 4 -13 16 -21 21 -21 13z"/>
<path d="M105 3380 c-6 -11 31 -33 47 -28 6 2 -1 12 -15 21 -15 9 -28 13 -32
7z"/>
<path d="M692 3355 c-1 -17 -7 -36 -13 -42 -8 -8 -9 -28 -4 -60 7 -43 8 -46
17 -24 5 14 7 54 5 90 -2 37 -4 52 -5 36z"/>
<path d="M406 3345 c4 -8 8 -15 10 -15 2 0 4 7 4 15 0 8 -4 15 -10 15 -5 0 -7
-7 -4 -15z"/>
<path d="M936 3348 c-3 -10 -9 -26 -12 -35 -12 -32 -11 -53 2 -64 10 -8 12 -5
8 18 -5 27 -5 27 10 8 15 -19 15 -18 15 15 0 19 -4 44 -9 55 -7 18 -8 18 -14
3z"/>
<path d="M893 3340 c2 -8 0 -25 -4 -37 -5 -12 -4 -25 0 -28 12 -7 19 52 8 67
-6 10 -7 9 -4 -2z"/>
<path d="M42 3320 c7 -11 17 -20 22 -20 5 0 1 9 -9 20 -10 11 -20 20 -22 20
-2 0 2 -9 9 -20z"/>
<path d="M468 3313 c2 -12 6 -23 7 -23 1 0 5 11 7 23 3 14 0 24 -7 24 -7 0
-10 -10 -7 -24z"/>
<path d="M500 3321 c0 -5 5 -13 10 -16 6 -3 10 -2 10 4 0 5 -4 13 -10 16 -5 3
-10 2 -10 -4z"/>
<path d="M551 3314 c0 -11 3 -14 6 -6 3 7 2 16 -1 19 -3 4 -6 -2 -5 -13z"/>
<path d="M1500 3313 c0 -12 -3 -28 -6 -37 -3 -9 -2 -16 4 -16 13 0 23 53 11
65 -5 5 -9 1 -9 -12z"/>
<path d="M1548 3317 c-12 -29 -10 -63 3 -50 6 6 9 23 7 39 -2 24 -4 26 -10 11z"/>
<path d="M600 3291 c0 -12 5 -21 10 -21 6 0 10 6 10 14 0 8 -4 18 -10 21 -5 3
-10 -3 -10 -14z"/>
<path d="M75 3291 c-3 -5 -1 -12 5 -16 5 -3 10 1 10 9 0 18 -6 21 -15 7z"/>
<path d="M436 3265 c-3 -8 -1 -15 4 -15 5 0 12 -11 16 -25 3 -14 10 -23 14
-20 8 5 -11 75 -21 75 -4 0 -9 -7 -13 -15z"/>
<path d="M751 3264 c0 -11 3 -14 6 -6 3 7 2 16 -1 19 -3 4 -6 -2 -5 -13z"/>
<path d="M844 3254 c3 -16 8 -47 12 -69 4 -22 11 -47 16 -55 7 -11 8 -7 5 13
-4 26 -2 28 20 22 22 -5 23 -4 13 15 -6 12 -9 28 -6 36 8 21 -4 43 -21 37 -10
-4 -13 -14 -8 -32 4 -19 3 -22 -5 -11 -5 8 -10 25 -10 37 0 12 -5 25 -11 29
-8 4 -9 -3 -5 -22z"/>
<path d="M1457 3227 c6 -54 27 -105 38 -88 3 6 3 11 -2 11 -4 0 0 5 10 11 12
7 17 22 16 47 -1 32 -2 34 -8 12 l-7 -25 -8 23 c-4 12 -13 22 -21 22 -7 0 -16
8 -18 18 -2 9 -2 -5 0 -31z m20 -49 c-3 -7 -5 -2 -5 12 0 14 2 19 5 13 2 -7 2
-19 0 -25z"/>
<path d="M0 3259 c0 -5 5 -7 10 -4 5 3 10 8 10 11 0 2 -4 4 -10 4 -5 0 -10 -5
-10 -11z"/>
<path d="M650 3249 c0 -11 4 -18 10 -14 5 3 7 12 3 20 -7 21 -13 19 -13 -6z"/>
<path d="M176 3236 c5 -14 54 -51 54 -42 0 3 -5 17 -12 31 -12 26 -52 37 -42
11z"/>
<path d="M730 3220 c0 -16 4 -30 8 -30 5 0 7 14 4 30 -2 17 -6 30 -8 30 -2 0
-4 -13 -4 -30z"/>
<path d="M1121 3234 c0 -11 3 -14 6 -6 3 7 2 16 -1 19 -3 4 -6 -2 -5 -13z"/>
<path d="M1 3224 c0 -11 3 -14 6 -6 3 7 2 16 -1 19 -3 4 -6 -2 -5 -13z"/>
<path d="M427 3223 c-5 -7 -5 -18 -2 -24 4 -5 9 -25 12 -42 2 -18 9 -36 14
-41 5 -6 9 -18 9 -29 0 -11 4 -15 11 -11 8 5 10 -1 5 -19 -3 -14 -2 -28 3 -31
5 -3 7 -16 5 -29 -4 -20 -4 -21 5 -2 8 17 10 18 10 3 1 -11 9 -18 20 -18 10 0
22 -7 25 -16 8 -22 0 -30 -16 -16 -9 7 -17 6 -25 -3 -10 -10 -9 -14 3 -19 9
-3 20 -4 25 -1 7 5 79 -23 113 -43 5 -3 6 0 2 6 -5 8 0 12 13 12 11 0 22 -4
26 -9 3 -6 14 -9 24 -8 16 1 17 4 7 22 -6 11 -11 21 -11 21 0 1 -10 5 -22 8
-19 6 -22 4 -16 -10 4 -12 2 -15 -8 -12 -20 7 -23 34 -4 42 32 12 110 -49 99
-77 -3 -10 1 -17 13 -20 16 -4 16 -5 1 -6 -22 -1 -23 -10 -2 -39 8 -12 13 -26
9 -31 -7 -13 67 -33 78 -22 5 5 3 9 -4 8 -8 0 -25 1 -39 2 -23 1 -23 3 -7 12
10 6 24 8 32 6 21 -9 26 5 7 19 -9 7 -14 15 -11 19 9 9 59 -16 86 -43 24 -24
44 -25 51 -2 3 7 0 10 -5 7 -11 -7 -53 20 -53 34 0 5 7 9 15 9 8 0 15 -4 15
-10 0 -5 7 -10 15 -10 9 0 19 -8 22 -17 6 -16 41 -53 49 -53 9 0 -10 29 -22
34 -8 3 -14 12 -14 19 0 14 -65 78 -106 105 -17 11 -17 12 3 2 12 -5 29 -10
38 -10 13 0 14 4 5 20 -14 26 -8 25 40 -5 22 -14 42 -25 45 -25 13 0 -31 49
-44 50 -7 0 -27 12 -45 27 -21 18 -25 24 -11 20 17 -6 16 -4 -5 16 -14 13 -26
27 -27 33 -1 5 -5 18 -9 29 -7 18 -6 19 10 6 16 -13 16 -12 5 15 -7 16 -18 36
-25 44 -6 8 -16 28 -21 45 -7 22 -18 31 -41 36 -31 6 -32 5 -32 -27 0 -19 3
-34 8 -34 4 0 13 -10 20 -22 9 -16 4 -14 -16 8 -22 24 -31 28 -40 18 -9 -10
-9 -16 1 -26 21 -21 28 -48 11 -41 -8 3 -14 -1 -14 -8 -1 -8 -8 2 -17 21 -13
29 -17 32 -21 15 -2 -10 1 -21 7 -23 6 -2 9 -8 6 -13 -3 -5 -1 -17 4 -27 7
-13 6 -19 -2 -19 -7 0 -21 -4 -32 -9 -19 -8 -19 -7 -2 19 21 32 21 37 2 37 -8
0 -15 4 -15 8 0 4 -9 8 -19 9 -14 1 -18 -3 -14 -13 3 -8 9 -14 14 -14 5 0 9
-15 9 -33 0 -24 -6 -35 -22 -42 -20 -9 -24 -6 -34 20 -6 17 -15 39 -20 50 -7
18 -6 19 11 5 17 -14 18 -13 11 5 -4 11 -9 25 -10 32 -1 7 -5 16 -9 19 -4 4
-7 19 -7 33 -1 14 -7 37 -16 51 -12 20 -14 21 -9 4 3 -11 8 -41 10 -65 12 -96
14 -108 20 -119 9 -15 -3 -47 -21 -54 -11 -4 -15 -2 -11 8 3 8 -1 20 -9 26
-11 10 -14 10 -14 1 0 -23 -19 0 -30 37 -6 20 -16 47 -22 59 -6 12 -8 33 -6
48 4 18 0 29 -13 35 -10 6 -19 20 -21 32 -2 16 -6 19 -11 11z m384 -53 c0 10
3 8 9 -5 12 -27 12 -43 0 -25 -5 8 -10 11 -10 5 0 -13 -20 17 -20 30 0 6 5 3
10 -5 9 -13 10 -13 11 0z m-181 -250 c10 -19 10 -20 -9 -8 -22 13 -28 28 -11
28 5 0 14 -9 20 -20z m253 -61 c14 -13 17 -19 7 -17 -16 3 -40 23 -40 32 0 11
11 6 33 -15z"/>
<path d="M1422 3200 c0 -19 2 -27 5 -17 2 9 2 25 0 35 -3 9 -5 1 -5 -18z"/>
<path d="M490 3195 c0 -14 5 -25 10 -25 6 0 10 11 10 25 0 14 -4 25 -10 25 -5
0 -10 -11 -10 -25z"/>
<path d="M46 3195 c4 -10 0 -15 -12 -15 -13 0 -15 -3 -7 -11 8 -8 17 -8 31 0
16 8 21 7 26 -5 9 -23 8 -24 -16 -24 l-23 0 25 -24 c17 -16 28 -20 33 -12 6 8
10 7 14 -1 2 -7 9 -13 15 -13 6 0 3 11 -6 25 -33 51 -9 49 27 -2 39 -55 34
-15 -5 43 -17 26 -34 42 -36 36 -3 -9 -10 -8 -25 3 -28 19 -48 19 -41 0z"/>
<path d="M966 3182 c10 -45 13 -52 24 -52 7 0 8 6 2 16 -5 9 -7 25 -5 34 3 10
-2 20 -11 23 -13 5 -15 1 -10 -21z"/>
<path d="M1020 3180 c0 -5 5 -10 11 -10 5 0 7 5 4 10 -3 6 -8 10 -11 10 -2 0
-4 -4 -4 -10z"/>
<path d="M946 3167 c3 -10 9 -15 12 -12 3 3 0 11 -7 18 -10 9 -11 8 -5 -6z"/>
<path d="M502 3135 c0 -16 2 -22 5 -12 2 9 2 23 0 30 -3 6 -5 -1 -5 -18z"/>
<path d="M0 3141 c0 -5 5 -13 10 -16 5 -3 10 -2 10 4 0 5 -4 13 -10 16 -5 3
-10 2 -10 -4z"/>
<path d="M249 3133 c6 -12 10 -26 9 -30 -3 -15 14 -63 23 -63 12 0 11 17 -1
25 -15 9 -12 23 6 27 12 2 8 10 -17 33 -26 24 -29 26 -20 8z"/>
<path d="M900 3127 c0 -8 7 -20 15 -27 12 -10 15 -10 15 3 0 8 -7 20 -15 27
-12 10 -15 10 -15 -3z"/>
<path d="M941 3137 c-2 -17 20 -47 30 -42 5 4 9 -1 9 -9 0 -9 5 -16 10 -16 14
0 12 12 -6 38 -8 12 -19 20 -24 17 -4 -3 -11 1 -13 7 -3 7 -6 9 -6 5z"/>
<path d="M402 3110 c0 -14 2 -19 5 -12 2 6 2 18 0 25 -3 6 -5 1 -5 -13z"/>
<path d="M324 3094 c-15 -6 -6 -41 12 -48 16 -6 19 10 3 19 -6 4 -8 13 -5 21
3 8 4 14 3 13 -1 0 -7 -3 -13 -5z"/>
<path d="M1040 3087 c0 -13 33 -97 37 -94 7 7 -16 85 -27 92 -6 3 -10 4 -10 2z"/>
<path d="M375 3031 c8 -69 20 -94 30 -62 10 34 13 101 4 101 -5 0 -9 -6 -9
-12 0 -7 -7 -4 -16 7 -14 18 -15 16 -9 -34z"/>
<path d="M956 3055 c-9 -26 -7 -32 5 -12 6 10 9 21 6 23 -2 3 -7 -2 -11 -11z"/>
<path d="M4 3013 c-1 -21 1 -30 3 -20 3 9 11 17 19 17 12 0 12 3 2 20 -18 29
-24 25 -24 -17z"/>
<path d="M627 3030 c-3 -11 0 -23 5 -27 7 -3 8 -1 4 5 -4 7 -2 12 3 12 6 0 11
7 11 15 0 22 -17 18 -23 -5z"/>
<path d="M910 3039 c0 -5 5 -7 10 -4 6 3 10 8 10 11 0 2 -4 4 -10 4 -5 0 -10
-5 -10 -11z"/>
<path d="M236 3020 c3 -14 8 -40 11 -58 3 -18 14 -37 24 -43 11 -5 19 -18 19
-27 0 -26 28 -62 48 -62 15 1 15 2 -1 14 -20 16 -38 94 -19 82 8 -4 10 -2 6 8
-6 17 -32 29 -45 20 -5 -3 -9 6 -9 20 0 14 -4 26 -8 26 -5 0 -14 10 -21 23
-11 22 -11 22 -5 -3z"/>
<path d="M1460 3030 c0 -5 5 -10 10 -10 6 0 10 5 10 10 0 6 -4 10 -10 10 -5 0
-10 -4 -10 -10z"/>
<path d="M296 3024 c6 -3 9 -17 6 -31 -4 -21 -2 -25 11 -20 10 4 17 0 20 -11
3 -12 5 -11 6 6 0 12 -3 22 -8 22 -5 0 -11 9 -14 20 -3 11 -11 20 -19 19 -8 0
-9 -2 -2 -5z"/>
<path d="M361 2984 c0 -11 3 -14 6 -6 3 7 2 16 -1 19 -3 4 -6 -2 -5 -13z"/>
<path d="M104 2980 c3 -8 9 -23 12 -32 4 -10 10 -18 16 -18 9 0 0 20 -22 50
-10 13 -11 13 -6 0z"/>
<path d="M1616 2965 c-9 -26 -7 -32 5 -12 6 10 9 21 6 23 -2 3 -7 -2 -11 -11z"/>
<path d="M360 2945 c0 -8 4 -15 10 -15 5 0 7 7 4 15 -4 8 -8 15 -10 15 -2 0
-4 -7 -4 -15z"/>
<path d="M180 2936 c0 -8 -6 -16 -12 -19 -10 -3 -10 -8 1 -21 8 -9 16 -14 19
-11 10 9 11 55 1 60 -5 4 -9 0 -9 -9z"/>
<path d="M240 2912 c0 -5 7 -15 15 -22 8 -7 15 -8 15 -2 0 5 -7 15 -15 22 -8
7 -15 8 -15 2z"/>
<path d="M340 2913 c0 -14 31 -48 57 -61 36 -20 39 -13 7 16 -51 46 -64 55
-64 45z"/>
<path d="M440 2905 c0 -8 4 -15 10 -15 5 0 7 7 4 15 -4 8 -8 15 -10 15 -2 0
-4 -7 -4 -15z"/>
<path d="M1036 2905 c3 -6 13 -11 23 -11 11 0 17 6 14 12 -3 7 -13 12 -23 11
-10 0 -16 -6 -14 -12z"/>
<path d="M511 2891 c-8 -6 -9 -11 -3 -15 6 -3 14 -1 17 5 9 14 2 20 -14 10z"/>
<path d="M160 2876 c0 -10 24 -50 35 -58 5 -4 14 -4 20 0 5 3 16 7 23 8 20 3
23 9 16 27 -9 24 -37 30 -50 12 -11 -14 -13 -14 -28 0 -9 9 -16 14 -16 11z"/>
<path d="M476 2839 c3 -5 12 -9 21 -9 19 0 9 13 -12 16 -8 1 -13 -2 -9 -7z"/>
<path d="M530 2840 c0 -5 4 -10 9 -10 6 0 13 5 16 10 3 6 -1 10 -9 10 -9 0
-16 -4 -16 -10z"/>
<path d="M637 2844 c-12 -13 -7 -20 13 -20 11 0 19 5 17 10 -4 13 -21 18 -30
10z"/>
<path d="M1580 2801 c-6 -12 -7 -21 -1 -21 10 0 24 30 17 37 -2 3 -9 -5 -16
-16z"/>
<path d="M142 2785 c15 -14 35 -25 45 -24 14 0 15 2 3 6 -8 3 -23 14 -33 24
-10 11 -23 19 -30 19 -6 0 0 -11 15 -25z"/>
<path d="M120 2765 c0 -8 5 -15 10 -15 6 0 10 7 10 15 0 8 -4 15 -10 15 -5 0
-10 -7 -10 -15z"/>
<path d="M734 2765 c8 -8 17 -15 20 -15 3 0 3 7 0 15 -4 8 -13 15 -21 15 -12
0 -12 -2 1 -15z"/>
<path d="M1536 2731 c-4 -7 -5 -15 -2 -18 9 -9 19 4 14 18 -4 11 -6 11 -12 0z"/>
<path d="M135 2680 c3 -5 8 -10 11 -10 2 0 4 5 4 10 0 6 -5 10 -11 10 -5 0 -7
-4 -4 -10z"/>
<path d="M1501 2674 c0 -11 3 -14 6 -6 3 7 2 16 -1 19 -3 4 -6 -2 -5 -13z"/>
<path d="M80 2652 c0 -12 19 -26 26 -19 2 2 -2 10 -11 17 -9 8 -15 8 -15 2z"/>
<path d="M70 2620 c0 -5 5 -10 11 -10 5 0 7 5 4 10 -3 6 -8 10 -11 10 -2 0 -4
-4 -4 -10z"/>
<path d="M1761 2614 c0 -11 3 -14 6 -6 3 7 2 16 -1 19 -3 4 -6 -2 -5 -13z"/>
<path d="M150 2609 c0 -5 5 -7 10 -4 6 3 10 8 10 11 0 2 -4 4 -10 4 -5 0 -10
-5 -10 -11z"/>
<path d="M1838 2597 c-3 -19 -2 -25 4 -19 6 6 8 18 6 28 -3 14 -5 12 -10 -9z"/>
<path d="M1611 2584 c0 -12 6 -37 14 -55 10 -25 14 -29 15 -13 0 11 -4 24 -9
30 -5 5 -11 20 -14 34 -4 21 -4 22 -6 4z"/>
<path d="M1582 2531 c-14 -46 -15 -58 -3 -45 10 10 26 84 19 84 -3 0 -10 -17
-16 -39z"/>
<path d="M1810 2546 c0 -12 -5 -16 -15 -12 -15 5 -45 -38 -45 -65 0 -19 29 24
30 43 0 11 5 15 15 12 15 -6 33 22 21 33 -3 4 -6 -2 -6 -11z"/>
<path d="M1743 2534 c-15 -16 -16 -24 -4 -24 8 0 24 30 19 35 -2 2 -9 -3 -15
-11z"/>
<path d="M0 2520 c0 -5 5 -10 11 -10 5 0 7 5 4 10 -3 6 -8 10 -11 10 -2 0 -4
-4 -4 -10z"/>
<path d="M1000 2510 c0 -12 28 -25 36 -17 3 3 -4 10 -15 17 -15 7 -21 7 -21 0z"/>
<path d="M1516 2452 c-9 -92 4 -125 46 -115 16 5 48 49 48 68 0 16 -19 2 -22
-17 -3 -20 -4 -21 -20 -5 -23 24 -29 21 -22 -8 4 -15 2 -25 -5 -25 -13 0 -15
14 -11 103 1 37 0 67 -3 67 -2 0 -7 -31 -11 -68z"/>
<path d="M1822 2495 c0 -16 2 -22 5 -12 2 9 2 23 0 30 -3 6 -5 -1 -5 -18z"/>
<path d="M462 2473 c-12 -2 -20 -9 -17 -14 4 -5 1 -9 -4 -9 -6 0 -11 -4 -11
-10 0 -5 14 -10 30 -10 20 0 30 5 30 15 0 8 7 15 15 15 8 0 15 5 15 10 0 10
-16 11 -58 3z"/>
<path d="M328 2448 c-7 -7 -31 -14 -53 -15 -27 -1 -35 1 -25 7 11 7 8 10 -12
10 -16 0 -28 -5 -28 -11 0 -6 -9 -8 -22 -3 -52 16 -70 13 -97 -19 -14 -17 -25
-34 -24 -38 2 -4 -6 -10 -16 -14 -34 -10 -47 -46 -50 -134 -2 -65 0 -82 11
-79 7 3 14 21 16 41 3 31 7 36 30 39 17 2 26 8 24 17 -2 7 11 25 27 39 17 13
28 29 24 35 -4 6 6 8 28 5 42 -7 91 1 83 13 -3 5 0 9 6 9 6 0 8 5 5 10 -4 6 6
10 23 10 67 0 123 13 118 26 -3 8 1 14 9 14 8 0 15 5 15 11 0 8 -12 10 -35 6
-19 -3 -37 -1 -40 4 -4 5 -1 9 4 9 6 0 11 5 11 10 0 14 -16 13 -32 -2z"/>
<path d="M1090 2456 c0 -3 9 -10 20 -16 11 -6 20 -8 20 -6 0 3 -9 10 -20 16
-11 6 -20 8 -20 6z"/>
<path d="M1630 2420 c0 -16 5 -30 10 -30 6 0 10 14 10 30 0 17 -4 30 -10 30
-5 0 -10 -13 -10 -30z"/>
<path d="M1817 2393 c-7 -41 8 -68 23 -43 13 21 12 39 -1 20 -8 -11 -9 -5 -4
23 3 20 2 37 -3 37 -5 0 -12 -17 -15 -37z"/>
<path d="M1217 2350 c9 -11 19 -17 21 -15 6 6 -18 35 -29 35 -5 0 -1 -9 8 -20z"/>
<path d="M1770 2289 c0 -17 4 -28 10 -24 6 3 10 17 10 31 0 13 -4 24 -10 24
-5 0 -10 -14 -10 -31z"/>
<path d="M1820 2304 c0 -8 5 -12 10 -9 6 3 10 10 10 16 0 5 -4 9 -10 9 -5 0
-10 -7 -10 -16z"/>
<path d="M1838 2284 c-12 -11 -10 -44 2 -44 6 0 10 -10 11 -22 0 -22 1 -22 9
-3 12 27 12 37 1 30 -5 -3 -11 6 -13 21 -2 14 -6 22 -10 18z"/>
<path d="M1620 2254 c0 -8 5 -12 10 -9 6 4 8 11 5 16 -9 14 -15 11 -15 -7z"/>
<path d="M1880 2225 c-8 -24 -9 -40 -2 -47 6 -6 11 6 15 34 7 54 2 59 -13 13z"/>
<path d="M1772 2215 c0 -16 2 -22 5 -12 2 9 2 23 0 30 -3 6 -5 -1 -5 -18z"/>
<path d="M1584 2205 c-3 -8 -4 -20 -2 -27 3 -7 7 -1 10 15 6 29 1 36 -8 12z"/>
<path d="M1611 2194 c0 -11 3 -14 6 -6 3 7 2 16 -1 19 -3 4 -6 -2 -5 -13z"/>
<path d="M1636 2193 c-6 -14 -5 -15 5 -6 7 7 10 15 7 18 -3 3 -9 -2 -12 -12z"/>
<path d="M1762 2150 c-10 -17 -10 -20 3 -20 8 0 15 9 15 20 0 11 -1 20 -3 20
-1 0 -8 -9 -15 -20z"/>
<path d="M1850 2155 c0 -8 5 -15 10 -15 6 0 10 7 10 15 0 8 -4 15 -10 15 -5 0
-10 -7 -10 -15z"/>
<path d="M1815 2130 c-3 -5 -1 -10 4 -10 6 0 11 5 11 10 0 6 -2 10 -4 10 -3 0
-8 -4 -11 -10z"/>
<path d="M1 2114 c0 -11 3 -14 6 -6 3 7 2 16 -1 19 -3 4 -6 -2 -5 -13z"/>
<path d="M1666 2091 c-3 -5 1 -11 9 -15 8 -3 15 -1 15 4 0 13 -18 22 -24 11z"/>
<path d="M1612 2070 c0 -14 2 -19 5 -12 2 6 2 18 0 25 -3 6 -5 1 -5 -13z"/>
<path d="M1630 2081 c0 -16 12 -41 20 -41 4 0 5 11 2 25 -4 23 -22 36 -22 16z"/>
<path d="M1855 2050 c-3 -5 -1 -10 4 -10 6 0 11 5 11 10 0 6 -2 10 -4 10 -3 0
-8 -4 -11 -10z"/>
<path d="M1791 2034 c0 -11 3 -14 6 -6 3 7 2 16 -1 19 -3 4 -6 -2 -5 -13z"/>
<path d="M648 1913 c7 -3 16 -2 19 1 4 3 -2 6 -13 5 -11 0 -14 -3 -6 -6z"/>
<path d="M145 1900 c-16 -7 -17 -9 -3 -9 9 -1 18 -7 21 -13 3 -7 4 -3 4 10 -1
12 -1 22 -2 21 0 0 -9 -4 -20 -9z"/>
<path d="M190 1863 c-8 -2 -21 -6 -28 -9 -11 -3 -10 -7 2 -19 22 -23 41 -18
41 10 0 14 0 25 0 24 0 0 -7 -3 -15 -6z"/>
<path d="M1605 1860 c-3 -5 -1 -10 4 -10 6 0 11 5 11 10 0 6 -2 10 -4 10 -3 0
-8 -4 -11 -10z"/>
<path d="M565 1830 c-4 -6 7 -10 24 -10 17 0 31 5 31 10 0 6 -11 10 -24 10
-14 0 -28 -4 -31 -10z"/>
<path d="M225 1810 c3 -5 11 -10 16 -10 6 0 7 5 4 10 -3 6 -11 10 -16 10 -6 0
-7 -4 -4 -10z"/>
<path d="M600 1790 c0 -5 -7 -10 -16 -10 -8 0 -12 -4 -9 -10 3 -5 18 -10 33
-10 21 0 24 2 12 10 -11 7 -11 10 -2 10 7 0 10 5 7 10 -3 6 -10 10 -16 10 -5
0 -9 -4 -9 -10z"/>
<path d="M648 1773 c6 -2 18 -2 25 0 6 3 1 5 -13 5 -14 0 -19 -2 -12 -5z"/>
<path d="M1560 1770 c0 -5 5 -10 10 -10 6 0 10 5 10 10 0 6 -4 10 -10 10 -5 0
-10 -4 -10 -10z"/>
<path d="M1790 1760 c0 -5 5 -10 11 -10 5 0 7 5 4 10 -3 6 -8 10 -11 10 -2 0
-4 -4 -4 -10z"/>
<path d="M695 1705 c-19 -14 -19 -14 5 -16 70 -4 92 -3 96 3 13 20 -77 32
-101 13z"/>
<path d="M283 1693 c-13 -2 -23 -9 -23 -14 0 -14 26 -11 40 6 7 8 11 14 9 14
-2 -1 -14 -4 -26 -6z"/>
<path d="M563 1683 c9 -2 25 -2 35 0 9 3 1 5 -18 5 -19 0 -27 -2 -17 -5z"/>
<path d="M380 1655 c0 -8 -9 -15 -19 -15 -10 0 -21 -7 -25 -15 -4 -10 7 -18
37 -27 46 -13 224 -18 201 -5 -8 5 -12 12 -9 16 2 5 -17 11 -42 14 -26 3 -49
10 -51 16 -2 6 -11 11 -20 12 -14 0 -13 2 3 9 15 6 8 9 -27 9 -36 1 -48 -3
-48 -14z"/>
<path d="M678 1663 c7 -3 16 -2 19 1 4 3 -2 6 -13 5 -11 0 -14 -3 -6 -6z"/>
<path d="M730 1660 c-13 -9 -13 -10 0 -11 8 -1 20 -2 25 -4 6 -1 15 -3 21 -3
7 -1 14 -11 17 -22 3 -11 12 -20 21 -20 9 0 16 -4 16 -10 0 -5 10 -10 23 -10
20 1 20 3 -11 29 -28 24 -31 29 -16 35 9 4 15 9 12 11 -10 11 -94 14 -108 5z"/>
<path d="M680 1624 c0 -13 -8 -15 -40 -12 -22 2 -40 0 -40 -4 0 -5 7 -8 16 -8
8 0 13 -4 10 -9 -3 -4 5 -6 17 -4 13 3 29 -2 35 -10 7 -8 22 -13 32 -10 21 6
28 25 8 21 -6 -2 -14 5 -16 15 -2 10 2 17 12 17 9 0 16 -4 16 -10 0 -12 11
-13 30 0 12 7 12 12 2 22 -9 9 -12 9 -12 0 0 -9 -5 -10 -19 -2 -29 15 -51 12
-51 -6z"/>
<path d="M1720 1624 c0 -8 5 -12 10 -9 6 3 10 10 10 16 0 5 -4 9 -10 9 -5 0
-10 -7 -10 -16z"/>
<path d="M1785 1620 c3 -5 8 -10 11 -10 2 0 4 5 4 10 0 6 -5 10 -11 10 -5 0
-7 -4 -4 -10z"/>
<path d="M1590 1596 c0 -9 5 -16 10 -16 6 0 10 4 10 9 0 6 -4 13 -10 16 -5 3
-10 -1 -10 -9z"/>
<path d="M1751 1594 c0 -11 3 -14 6 -6 3 7 2 16 -1 19 -3 4 -6 -2 -5 -13z"/>
<path d="M1711 1593 c-1 -18 21 -63 31 -63 12 0 10 18 -3 25 -6 4 -14 17 -19
29 -5 11 -9 16 -9 9z"/>
<path d="M795 1560 c-7 -12 2 -12 30 0 19 8 19 9 -2 9 -12 1 -25 -3 -28 -9z"/>
<path d="M1663 1495 c-9 -20 -8 -25 2 -25 18 0 24 11 16 32 -5 15 -8 13 -18
-7z"/>
<path d="M1705 1510 c-3 -5 -1 -10 4 -10 6 0 11 5 11 10 0 6 -2 10 -4 10 -3 0
-8 -4 -11 -10z"/>
<path d="M1747 1513 c-4 -3 -7 -11 -7 -17 0 -6 5 -5 12 2 6 6 9 14 7 17 -3 3
-9 2 -12 -2z"/>
<path d="M1607 1497 c-3 -8 3 -14 15 -14 16 -2 17 1 8 13 -15 17 -17 17 -23 1z"/>
<path d="M1770 1500 c0 -5 4 -10 10 -10 5 0 7 -7 4 -15 -4 -8 -11 -12 -17 -8
-6 4 -7 -4 -3 -23 10 -39 13 -40 35 -13 13 17 16 30 11 45 -5 12 -6 25 -3 28
4 3 -3 6 -15 6 -12 0 -22 -4 -22 -10z"/>
<path d="M800 1486 c0 -9 5 -16 10 -16 6 0 10 4 10 9 0 6 -4 13 -10 16 -5 3
-10 -1 -10 -9z"/>
<path d="M770 1459 c0 -5 5 -7 10 -4 6 3 10 8 10 11 0 2 -4 4 -10 4 -5 0 -10
-5 -10 -11z"/>
<path d="M583 1410 c-18 -9 -30 -20 -26 -24 3 -3 -2 -6 -13 -7 -11 0 -3 -6 19
-14 23 -9 46 -11 59 -6 12 4 36 5 53 1 16 -4 53 -3 80 0 l50 7 -45 3 c-25 2
-58 2 -75 2 -26 -1 -27 0 -10 7 11 5 33 10 49 10 24 1 27 3 16 16 -7 9 -21 13
-31 10 -9 -3 -20 -1 -24 5 -3 5 -13 10 -21 10 -8 0 -12 -4 -9 -10 3 -5 1 -10
-4 -10 -6 0 -11 5 -11 10 0 14 -19 11 -57 -10z"/>
<path d="M778 1423 c7 -3 16 -2 19 1 4 3 -2 6 -13 5 -11 0 -14 -3 -6 -6z"/>
<path d="M830 1426 c0 -2 7 -6 15 -10 8 -3 15 -1 15 4 0 6 -7 10 -15 10 -8 0
-15 -2 -15 -4z"/>
<path d="M120 1400 c-12 -8 -11 -10 7 -10 12 0 25 -4 28 -10 8 -12 62 -13 69
-1 3 4 -12 13 -33 20 -46 13 -52 13 -71 1z"/>
<path d="M930 1380 c-11 -7 -7 -10 18 -10 20 0 31 4 27 10 -8 13 -26 13 -45 0z"/>
<path d="M52 1343 c-6 -2 -10 -9 -6 -14 3 -5 -2 -9 -11 -9 -9 0 -13 5 -10 10
3 6 -1 10 -9 10 -9 0 -16 -8 -16 -19 0 -14 8 -21 28 -24 l27 -4 -27 -2 c-16 0
-28 -6 -28 -12 0 -6 14 -9 32 -7 20 2 32 8 31 16 -2 7 8 12 26 12 16 0 35 8
42 18 13 15 12 16 -3 4 -9 -8 -25 -12 -35 -9 -16 4 -15 6 5 12 12 4 22 11 22
16 0 9 -46 11 -68 2z"/>
<path d="M521 1334 c-35 -15 -42 -29 -10 -21 17 5 18 3 7 -11 -11 -14 -10 -15
5 -9 10 4 28 7 40 8 12 0 16 3 10 6 -24 9 -13 20 13 15 17 -3 25 -1 21 5 -11
17 -53 21 -86 7z"/>
<path d="M798 1333 c12 -2 30 -2 40 0 9 3 -1 5 -23 4 -22 0 -30 -2 -17 -4z"/>
<path d="M878 1298 c5 -5 16 -8 23 -6 8 3 3 7 -10 11 -17 4 -21 3 -13 -5z"/>
<path d="M985 1260 c-17 -8 -16 -9 10 -11 17 -1 36 -2 43 -2 10 1 10 -2 1 -13
-9 -12 -6 -12 20 -3 41 15 48 28 14 27 -16 -1 -37 2 -48 5 -11 3 -29 2 -40 -3z"/>
<path d="M966 1225 c4 -8 10 -15 15 -15 5 0 9 7 9 15 0 8 -7 15 -15 15 -9 0
-12 -6 -9 -15z"/>
<path d="M1116 1214 c-9 -24 -7 -28 9 -14 8 6 19 9 25 5 5 -3 10 -2 10 3 0 6
-7 13 -16 16 -21 8 -21 8 -28 -10z"/>
<path d="M1010 1192 c0 -13 23 -32 40 -32 13 0 13 1 0 10 -13 9 -13 10 0 10
13 0 13 1 0 10 -18 12 -40 13 -40 2z"/>
<path d="M883 1175 c0 -8 4 -15 9 -15 4 0 8 7 8 15 0 8 -4 15 -8 15 -5 0 -9
-7 -9 -15z"/>
<path d="M945 1180 c-16 -7 -17 -9 -3 -9 9 -1 20 4 23 9 7 11 7 11 -20 0z"/>
<path d="M1225 1180 c-4 -7 -18 -9 -32 -5 -18 4 -23 2 -17 -6 5 -8 3 -9 -6 -4
-7 4 -15 2 -19 -4 -9 -15 -119 -22 -124 -8 -2 7 -9 7 -20 0 -16 -8 -15 -11 8
-23 14 -7 25 -17 25 -22 0 -5 -9 -4 -19 2 -24 13 -51 13 -51 1 0 -5 8 -12 18
-14 16 -4 16 -5 0 -6 -10 0 -18 -5 -18 -11 0 -5 -7 -10 -15 -10 -8 0 -15 -4
-15 -10 0 -13 46 -13 72 1 11 6 23 7 26 3 4 -4 1 -9 -6 -11 -10 -4 -10 -8 -1
-19 13 -16 2 -18 -33 -5 -26 9 -130 24 -110 15 6 -3 12 -12 12 -20 0 -8 6 -11
15 -8 11 4 13 2 9 -9 -3 -8 -1 -18 5 -22 15 -9 14 -23 -1 -21 -7 0 -15 -3 -18
-9 -3 -5 13 -12 36 -15 37 -5 41 -4 36 13 -4 16 -1 18 19 13 13 -3 18 -3 12 0
-7 3 -13 10 -13 15 0 32 59 -21 65 -59 1 -12 12 -17 37 -17 27 0 42 -8 71 -40
35 -38 37 -39 76 -29 32 9 47 8 71 -4 38 -18 56 -6 46 32 -7 27 -34 34 -71 20
-13 -5 -14 -8 -3 -15 10 -7 9 -9 -5 -9 -16 0 -18 5 -12 39 5 33 3 42 -20 66
-33 32 -65 45 -110 45 l-33 0 14 29 c8 17 24 33 34 36 11 4 27 13 36 22 10 10
18 12 22 6 13 -18 55 -22 83 -7 36 18 45 18 29 -1 -9 -10 -9 -15 -1 -15 6 0
11 5 11 10 0 6 11 8 28 4 22 -5 25 -4 15 7 -18 18 -53 22 -85 8 -24 -10 -31
-8 -53 12 -27 26 -32 45 -12 52 6 2 9 7 6 11 -4 4 -10 2 -14 -4z m-131 -73
c-1 -10 5 -17 17 -17 11 0 19 -5 19 -12 0 -6 -3 -9 -6 -5 -3 3 -17 1 -31 -4
-33 -12 -48 -2 -29 20 13 14 13 20 3 30 -10 10 -8 12 8 9 11 -2 19 -11 19 -21z
m106 -126 c0 -5 -7 -12 -16 -15 -22 -9 -24 -8 -24 9 0 8 9 15 20 15 11 0 20
-4 20 -9z"/>
<path d="M1369 1075 c-5 -24 -1 -49 9 -53 8 -2 12 7 12 27 0 17 -4 31 -10 31
-5 0 -10 -2 -11 -5z"/>
<path d="M1210 1060 c-12 -8 -12 -10 5 -10 11 0 27 5 35 10 12 8 12 10 -5 10
-11 0 -27 -5 -35 -10z"/>
<path d="M1220 1030 c0 -5 5 -10 10 -10 6 0 10 5 10 10 0 6 -4 10 -10 10 -5 0
-10 -4 -10 -10z"/>
<path d="M1265 970 c3 -5 8 -10 11 -10 2 0 4 5 4 10 0 6 -5 10 -11 10 -5 0 -7
-4 -4 -10z"/>
<path d="M1285 900 c-4 -7 3 -8 22 -4 38 9 42 14 10 14 -14 0 -29 -5 -32 -10z"/>
<path d="M918 783 c10 -4 9 -8 -3 -17 -15 -11 -14 -14 5 -31 16 -15 25 -17 38
-9 27 17 25 38 -5 52 -15 6 -32 12 -37 11 -6 0 -5 -3 2 -6z"/>
<path d="M1054 735 c-13 -10 -15 -14 -5 -15 11 0 10 -5 -4 -20 -13 -14 -14
-20 -5 -20 9 0 4 -10 -11 -27 -13 -14 -18 -23 -11 -19 25 14 80 14 86 0 7 -19
37 -5 34 16 -2 9 3 24 11 33 12 15 11 17 -10 18 -13 0 -18 3 -11 6 9 3 3 12
-17 24 -38 23 -33 22 -57 4z"/>
<path d="M640 718 c-14 -6 -34 -14 -45 -18 -109 -41 -158 -61 -270 -115 -124
-60 -290 -155 -270 -155 6 0 25 9 43 20 55 34 344 176 402 198 30 12 87 33
125 48 39 14 72 28 74 30 9 8 -35 2 -59 -8z"/>
<path d="M1216 684 c-11 -28 -7 -36 14 -31 15 4 20 1 18 -10 -2 -9 2 -18 9
-20 7 -3 11 10 10 36 -2 35 -5 41 -23 41 -12 0 -25 -7 -28 -16z"/>
<path d="M790 680 c-13 -8 -12 -10 3 -10 9 0 17 5 17 10 0 12 -1 12 -20 0z"/>
<path d="M1340 650 c-8 -5 -12 -12 -9 -15 4 -3 12 1 19 10 14 17 11 19 -10 5z"/>
<path d="M617 623 c-43 -14 -76 -27 -74 -29 5 -5 142 32 163 44 32 19 -5 13
-89 -15z"/>
<path d="M2500 620 c-12 -7 -11 -10 5 -16 11 -4 25 -15 32 -23 11 -14 12 -14
13 1 0 42 -19 58 -50 38z"/>
<path d="M490 580 c-18 -12 -2 -12 25 0 13 6 15 9 5 9 -8 0 -22 -4 -30 -9z"/>
<path d="M355 530 c-22 -11 -29 -17 -16 -14 38 10 88 33 71 33 -8 0 -33 -8
-55 -19z"/>
<path d="M2810 495 c15 -18 2 -24 -30 -15 -24 7 -28 6 -23 -8 6 -16 53 -68 53
-58 0 3 12 -2 28 -9 17 -10 28 -11 30 -4 3 6 10 5 20 -3 15 -11 15 -11 6 2 -6
8 -14 24 -18 34 -7 20 -7 20 15 0 27 -25 67 -26 75 -1 4 14 9 16 20 6 8 -7 14
-7 14 -1 0 5 -7 13 -16 16 -10 4 -13 13 -9 26 5 16 2 20 -14 20 -12 0 -21 -5
-21 -11 0 -8 -11 -9 -32 -4 -96 21 -108 22 -98 10z"/>
<path d="M239 483 c-13 -17 -13 -17 6 -3 11 8 22 16 24 17 2 2 0 3 -6 3 -6 0
-17 -8 -24 -17z"/>
<path d="M2675 450 c3 -6 -1 -10 -9 -10 -26 0 -18 -20 11 -31 19 -7 29 -7 31
0 2 6 10 11 17 11 7 0 15 8 17 18 5 16 -1 19 -34 20 -24 1 -37 -2 -33 -8z"/>
<path d="M2545 410 c-3 -5 3 -10 15 -10 12 0 18 5 15 10 -3 6 -10 10 -15 10
-5 0 -12 -4 -15 -10z"/>
<path d="M3017 409 c7 -7 15 -10 18 -7 3 3 -2 9 -12 12 -14 6 -15 5 -6 -5z"/>
<path d="M2931 318 c70 -118 121 -183 133 -170 4 3 11 0 16 -8 15 -23 12 -34
-5 -20 -24 20 -18 2 21 -61 31 -49 41 -59 65 -59 l28 0 -36 55 c-20 30 -40 55
-44 55 -5 0 -8 3 -7 7 6 17 -153 227 -183 244 -15 8 -13 -1 12 -43z"/>
<path d="M2983 353 c5 -28 25 -61 84 -138 29 -38 60 -79 68 -90 8 -10 30 -43
47 -72 33 -55 55 -72 35 -28 -7 14 -15 25 -19 25 -5 0 -8 5 -8 12 0 6 9 3 20
-7 17 -15 23 -16 33 -5 10 10 9 11 -2 5 -9 -5 -12 -4 -7 3 9 15 38 3 29 -12
-4 -8 -2 -8 7 1 7 6 20 9 29 6 12 -4 13 -3 2 5 -9 7 -10 12 -2 16 16 10 14 29
-2 23 -7 -3 -19 4 -25 14 -7 11 -8 19 -2 19 5 0 7 8 4 17 -5 15 -4 15 4 3 6
-8 8 -18 5 -24 -3 -5 -1 -6 4 -3 13 8 45 -26 40 -44 -2 -8 -2 -11 0 -6 3 4 10
7 18 7 7 0 -8 24 -33 53 -67 77 -231 237 -243 237 -6 0 -8 -4 -4 -10 6 -9 -59
-5 -76 6 -5 3 -8 -3 -6 -13z"/>
<path d="M2860 358 c0 -10 39 -79 55 -98 7 -8 27 -41 45 -72 17 -32 38 -58 47
-58 8 0 11 -5 8 -11 -4 -5 6 -35 22 -65 21 -41 33 -54 51 -54 16 0 21 4 16 13
-70 115 -167 261 -192 289 -13 14 -24 29 -23 32 1 3 -2 6 -5 5 -4 0 -11 5 -15
13 -5 7 -9 10 -9 6z"/>
<path d="M2805 310 c4 -14 19 -51 33 -83 18 -41 28 -54 35 -45 6 9 7 8 3 -5
-8 -26 23 -85 35 -66 7 12 9 12 9 0 0 -8 6 -11 16 -7 12 4 15 2 10 -9 -3 -9 0
-15 9 -15 18 0 14 -42 -5 -48 -8 -3 -10 0 -5 9 5 8 4 11 0 6 -5 -4 -15 5 -22
20 -12 26 -12 26 -7 3 17 -67 20 -70 74 -70 27 0 50 2 50 4 0 6 -62 114 -85
150 -17 26 -20 27 -26 10 -4 -13 -6 -7 -6 16 1 36 -40 109 -79 141 -16 13 -16
12 0 -13 10 -16 16 -28 13 -28 -4 0 -18 12 -33 28 l-26 27 7 -25z"/>
<path d="M3510 316 c0 -2 46 -38 103 -79 56 -41 140 -111 187 -156 87 -83 110
-95 110 -62 0 24 -120 121 -228 186 -9 6 -52 34 -94 63 -43 29 -78 51 -78 48z"/>
<path d="M2770 276 c0 -8 5 -18 10 -21 6 -3 10 -11 10 -18 0 -8 -3 -8 -12 1
-20 20 -38 14 -38 -13 0 -26 17 -65 35 -77 18 -13 16 -1 -6 36 -11 20 -16 36
-10 36 6 0 11 -7 11 -15 0 -8 4 -15 10 -15 5 0 12 -11 16 -25 3 -14 10 -22 15
-19 6 3 7 15 4 27 -5 19 -4 19 5 5 13 -20 8 -54 -10 -71 -10 -10 -12 -9 -7 4
3 9 0 16 -8 16 -8 0 -11 -7 -7 -15 4 -11 1 -13 -8 -7 -10 6 -12 4 -6 -11 5
-10 13 -31 18 -46 5 -16 14 -25 19 -22 5 3 9 0 9 -6 0 -6 5 -8 10 -5 6 4 17 2
23 -4 7 -5 23 -9 35 -8 21 1 21 2 -6 24 -15 12 -29 22 -32 23 -3 0 -6 12 -7
28 -2 24 -1 25 7 6 7 -18 40 -42 40 -30 0 2 -15 35 -33 72 -19 38 -42 90 -53
116 -19 47 -34 62 -34 34z"/>
<path d="M2678 233 c-5 -23 24 -120 47 -159 16 -27 16 -28 0 -9 -16 18 -17 18
-11 2 3 -10 6 -31 6 -45 0 -19 3 -23 9 -13 6 10 10 10 13 1 2 -7 11 -11 20 -9
14 4 14 10 -1 68 -9 36 -22 67 -30 69 -8 3 -11 0 -7 -7 4 -6 2 -11 -3 -11 -14
0 -14 6 -1 30 8 14 6 29 -4 54 -17 40 -33 53 -38 29z"/>
<path d="M2580 167 c0 -11 3 -18 6 -14 9 9 44 -31 43 -50 0 -16 -1 -16 -8 1
-8 20 -41 32 -41 15 0 -5 4 -9 9 -9 5 0 13 -9 16 -21 4 -11 9 -18 12 -15 11
11 33 -16 33 -40 0 -12 5 -26 10 -29 12 -8 12 -8 -1 35 -6 19 -12 52 -13 72
-4 42 -17 63 -46 71 -15 4 -20 0 -20 -16z"/>
<path d="M2681 94 c0 -11 3 -14 6 -6 3 7 2 16 -1 19 -3 4 -6 -2 -5 -13z"/>
<path d="M3435 39 c30 -36 33 -37 94 -37 46 0 51 2 28 8 -16 5 -35 17 -43 27
-13 17 -14 17 -7 -2 6 -18 5 -19 -12 -5 -17 14 -18 13 -12 -2 3 -10 2 -18 -2
-18 -5 0 -11 6 -14 14 -3 8 -16 20 -29 27 l-23 12 20 -24z"/>
<path d="M2580 28 c0 -16 5 -28 10 -28 13 0 13 20 0 40 -8 12 -10 9 -10 -12z"/>
<path d="M3380 15 c-8 -9 -8 -15 -2 -15 6 0 13 6 16 13 5 10 7 10 12 0 3 -7
10 -13 16 -13 6 0 6 6 -2 15 -7 8 -16 15 -20 15 -4 0 -13 -7 -20 -15z"/>
</g>
</svg>
